<svg width="200" height="200" viewBox="0 0 200 200" fill="none" xmlns="http://www.w3.org/2000/svg">
<path d="M125.326 84.7643C122.811 82.7648 120.273 81.5112 116.806 81.2099C116.427 81.1779 116.055 81.163 115.689 81.163C112.787 81.1609 110.283 82.1094 108.592 82.9432C107.942 83.2628 107.152 83.004 106.827 82.3653C106.502 81.7265 106.765 80.9497 107.415 80.6301C109.314 79.6975 112.203 78.5786 115.689 78.5766C116.127 78.5766 116.575 78.5945 117.031 78.6329C121.064 78.9642 124.221 80.5351 126.985 82.7577C129.76 84.9814 132.212 87.8291 135.112 90.9163C140.378 96.5302 147.663 99.572 155.013 99.5715C159.62 99.5709 164.247 98.3798 168.441 95.8747C169.574 95.1981 171.193 94.099 172.74 92.7808C174.288 91.4656 175.763 89.9175 176.637 88.418C177.225 87.4177 177.535 86.4621 177.533 85.6244C177.53 85.0459 177.4 84.5108 177.078 83.9481L177.077 83.9477C176.805 83.4778 176.54 83.2351 176.303 83.093C176.064 82.9533 175.827 82.8929 175.514 82.8904C175.097 82.8874 174.547 83.0294 173.969 83.3027C173.39 83.5728 172.79 83.963 172.256 84.3779L172.255 84.378C169.928 86.1752 167.709 88.0257 164.611 89.1813C162.1 90.1151 159.453 90.5807 156.813 90.5807C153.189 90.5807 149.573 89.7025 146.337 87.9457C143.322 86.3076 140.799 84.1435 138.426 81.9156C136.053 79.6853 133.823 77.3867 131.428 75.4232C126.108 71.0586 119.633 69.0378 112.644 68.2404C111.525 68.113 110.326 68.0258 109.122 68.0259C107.204 68.0243 105.277 68.2518 103.649 68.8483C102.014 69.4502 100.695 70.3755 99.7771 71.8471C99.3987 72.4567 98.5894 72.6492 97.9695 72.2771C97.3495 71.905 97.1537 71.1091 97.5322 70.4995C98.7943 68.4587 100.689 67.1637 102.734 66.4235C104.784 65.6778 107.001 65.4412 109.122 65.4395C110.455 65.4396 111.751 65.5353 112.946 65.6712C120.243 66.5004 127.278 68.6498 133.113 73.4373C133.567 73.8102 134.003 74.1983 134.441 74.5848C135.313 73.3887 136.296 72.2833 137.467 71.3324C143.875 66.1306 154.157 66.7696 159.537 60.5429C161.266 58.5418 161.503 57.7209 163.473 56.2863C168.915 52.3234 173.969 54.4393 176.749 50.8603C178.086 49.1383 178.684 46.3726 177.678 44.4656C175.346 40.0455 165.031 41.4498 160.807 42.0244C158.426 42.349 152.96 43.0398 146.891 46.0625C144.344 47.3305 141.915 48.8744 139.202 49.7458C136.04 50.7605 132.657 50.8104 129.334 50.936C119.289 51.3149 109.042 52.5304 100.03 56.907C97.73 58.0246 95.2533 59.5723 92.8671 61.4269C86.9275 60.7714 80.9936 61.8999 75.5708 64.2981C68.7007 62.626 63.0468 62.3778 60.0789 62.8136C62.5767 54.7898 66.3197 50.0558 69.3011 47.2061C73.2778 43.406 76.0197 42.8447 77.3521 38.9846C78.9208 34.4407 76.5013 31.221 79.2098 27.1097C80.4882 25.1686 81.7038 24.9368 82.3061 22.8468C82.866 20.9044 82.7389 17.9751 80.7579 16.1477C79.4011 14.8962 77.3495 14.3216 75.4938 14.6253C71.8028 15.2283 70.6708 19.0113 65.605 26.1139C64.9481 27.0358 61.9886 31.3277 57.9149 35.4927C52.9718 40.5468 48.5245 43.1073 36.0666 55.502C30.8339 60.7077 25.196 66.899 25.4638 74.4663C25.7181 81.6446 31.2802 87.3162 36.9489 91.3278C40.363 93.7443 44.7501 96.3504 49.6232 98.7265C49.41 99.6717 49.2103 100.62 49.0382 101.572C46.7811 114.081 46.8575 128.395 52.2244 140.155C57.2426 151.15 65.788 157.463 71.6719 160.892C69.0115 170.351 65.4349 184.462 70.1982 187.477C74.6475 190.294 87.0816 187.325 92.1852 187.104C95.2084 186.973 102.217 188.43 112.329 188.995C115.715 189.183 119.508 189.326 121.099 187.055C122.731 184.724 121.068 181.24 120.988 181.078C119.604 178.276 116.609 176.692 111.644 175.418C106.957 174.213 98.8858 172.867 87.8194 174.502C89.2892 172.066 90.5767 169.683 91.7036 167.377C97.9361 167.864 105.125 167.439 114.819 166.874C119.081 166.626 122.476 166.227 125.234 165.724C124.807 165.44 124.377 165.099 123.968 164.666C122.619 163.227 122.25 161.663 122.13 160.989C122.006 160.285 122.486 159.616 123.201 159.494C123.917 159.372 124.598 159.843 124.722 160.547C124.797 160.979 125.045 162.004 125.9 162.911C127.017 164.112 128.502 164.336 128.882 164.374C129.159 164.403 129.39 164.533 129.585 164.7C133.711 163.443 135.587 161.846 136.789 160.246C139.426 160.785 142.062 161.325 144.699 161.864C145.41 162.009 146.106 161.56 146.254 160.861C146.402 160.161 145.946 159.477 145.234 159.331C142.872 158.848 140.509 158.365 138.147 157.882C138.289 157.56 138.441 157.24 138.554 156.912C141.226 157.066 143.897 157.221 146.568 157.375C147.293 157.417 147.916 156.873 147.958 156.16C148.001 155.447 147.447 154.835 146.722 154.793C144.201 154.647 141.68 154.502 139.158 154.356C139.529 151.954 139.413 149.477 139.281 147.082C139.18 145.238 138.921 140.512 136.739 135.61C137.576 132.443 138.561 130.144 139.437 128.507C139.732 127.955 140.562 125.805 142.224 121.503C142.945 119.633 143.284 118.709 142.843 118.003C141.942 116.564 138.501 117.138 136.34 117.545C135.752 117.657 135.104 117.788 134.427 117.93C133.612 118.101 132.725 118.3 131.783 118.524C131.802 118.008 131.819 117.493 131.819 116.977C131.819 115.733 131.763 114.49 131.653 113.252V113.253C131.631 113.004 131.582 112.738 131.516 112.537C131.479 112.42 131.439 112.34 131.406 112.284C131.343 112.304 131.256 112.335 131.139 112.383L131.136 112.384C125.359 114.705 120.141 118.362 115.978 122.936C114.459 123.262 113.165 123.623 112.027 123.562C111.364 123.526 110.747 123.358 110.175 122.925C108.105 121.358 108.109 118.2 108.11 117.038C108.118 110.851 112.643 108.108 115.67 102.456C116.563 100.789 117.191 99.0983 117.635 97.4446C121.711 94.767 125.189 91.077 127.719 86.9228C126.919 86.1413 126.124 85.4017 125.326 84.7643ZM111.847 156.071C109.162 156.108 106.475 156.145 103.789 156.181C103.426 156.186 103.128 155.901 103.123 155.544C103.118 155.186 103.408 154.893 103.771 154.888C106.457 154.851 109.144 154.815 111.829 154.778C112.192 154.773 112.491 155.059 112.496 155.416C112.501 155.773 112.21 156.066 111.847 156.071ZM131.433 148.505C130.112 149.788 128.316 150.478 126.494 150.482C125.999 150.482 125.502 150.43 125.012 150.321L125.011 150.321C122.715 149.801 120.812 148.146 120.004 145.971C119.758 145.299 120.113 144.558 120.796 144.316C121.479 144.074 122.233 144.422 122.479 145.094C122.947 146.404 124.211 147.502 125.59 147.798C125.883 147.863 126.187 147.895 126.494 147.895C127.628 147.899 128.796 147.441 129.579 146.67C130.095 146.166 130.927 146.169 131.439 146.676C131.951 147.183 131.948 148.001 131.433 148.505ZM112.881 151.215C113.241 151.256 113.5 151.576 113.458 151.931C113.417 152.286 113.091 152.54 112.73 152.499C109.928 152.181 107.151 151.665 104.425 150.961H104.425C104.074 150.87 103.864 150.516 103.956 150.171C104.049 149.826 104.408 149.619 104.76 149.71C107.425 150.399 110.142 150.904 112.881 151.215Z" fill="#79A0CC"/>
</svg>
