<svg width="200" height="200" viewBox="0 0 200 200" fill="none" xmlns="http://www.w3.org/2000/svg">
<path d="M140.82 101.928C135.091 100.195 129.391 97.7633 124.597 93.8416C119.8 89.9097 115.99 84.3879 114.929 78.0194C114.771 77.0664 114.677 76.0823 114.677 75.0877C114.677 73.4317 114.939 71.7373 115.63 70.1451C116.194 68.849 117.05 67.6784 118.132 66.7692C119.213 65.8627 120.537 65.2149 122.006 65.0517C122.249 65.0247 122.492 65.0116 122.732 65.0116C124.099 65.0124 125.4 65.4286 126.534 66.1022C127.668 66.7779 128.647 67.7123 129.388 68.8124L129.387 68.8119C130.892 71.0562 131.403 73.7268 131.405 76.2553L131.401 76.6382V76.6388C131.396 76.8945 131.388 77.1352 131.388 77.3554C131.388 77.6889 131.407 77.9738 131.451 78.1757C131.494 78.3805 131.548 78.4889 131.609 78.5685C131.816 78.8441 132.202 79.0031 132.545 79.0963C133.969 79.5068 136.307 79.9619 138.322 80.3109C140.343 80.662 142.063 80.9155 142.346 80.9569C143.106 81.0682 143.634 81.79 143.526 82.5691C143.417 83.3482 142.713 83.8895 141.952 83.7782C141.655 83.7347 139.916 83.4783 137.857 83.1207C135.793 82.7611 133.431 82.309 131.793 81.8402L131.792 81.8398C131.359 81.7089 130.271 81.409 129.434 80.3449L129.433 80.3434C129.044 79.8429 128.836 79.2814 128.731 78.7716C128.625 78.2582 128.608 77.7826 128.607 77.3554C128.607 77.0736 128.616 76.8123 128.621 76.5785V76.579L128.624 76.2553C128.626 74.1151 128.173 72.0191 127.098 70.43L127.098 70.4294C126.594 69.6791 125.904 69.0214 125.138 68.5675C124.371 68.1116 123.539 67.8608 122.732 67.8616C122.59 67.8616 122.447 67.8693 122.305 67.885C121.45 67.9791 120.622 68.365 119.893 68.975C119.167 69.5821 118.557 70.4108 118.171 71.3038C117.674 72.4476 117.458 73.7374 117.458 75.0877C117.458 75.8968 117.536 76.7245 117.671 77.5427C118.574 83.0385 121.956 88.0341 126.334 91.6152C130.715 95.2052 136.072 97.5239 141.606 99.194C144.145 99.962 146.927 100.518 149.514 100.516C151.118 100.516 152.643 100.304 153.997 99.8258C155.353 99.3459 156.539 98.6129 157.539 97.53C159.217 95.7151 160 93.1171 160 90.3874C160 89.2522 159.864 88.1034 159.61 87.0053C159.376 85.9942 159.133 85.0283 158.749 83.9478L158.75 83.9489C158.052 82.0017 157.017 79.7323 154.494 76.253C152.507 73.5206 151.127 72.1332 149.943 70.8414C148.761 69.5616 147.733 68.2822 146.873 66.1754L146.873 66.1748C145.975 63.9978 145.661 62.0662 145.53 60.8679C145.508 60.6723 145.527 60.4816 145.578 60.3041C145.055 57.0011 144.494 53.4768 143.891 49.7061C144.047 49.7569 144.21 49.7901 144.382 49.781C147.003 49.6426 149.611 49.2814 152.172 48.7015C152.922 48.5317 153.396 47.7711 153.23 47.0027C153.065 46.2342 152.322 45.7489 151.573 45.9187C149.161 46.4645 146.706 46.8046 144.239 46.9348C143.954 46.9498 143.71 47.0725 143.496 47.2354C143.353 46.3357 143.207 45.423 143.058 44.4962C143.236 44.5218 143.422 44.513 143.607 44.463C146.107 43.7868 148.606 43.1105 151.105 42.4349C151.848 42.2343 152.291 41.4547 152.095 40.6937C151.9 39.9327 151.139 39.4786 150.396 39.6792C147.896 40.3549 145.397 41.0313 142.897 41.7075C142.798 41.7342 142.721 41.7945 142.633 41.8402C142.298 39.7444 141.953 37.5888 141.596 35.3559C141.075 32.0969 137.678 10.8381 133.832 10.9299C132.941 10.9515 131.759 12.677 129.396 16.1295C127.638 18.6969 126.346 21.002 125.442 22.7588C118.678 22.7241 111.914 22.6893 105.149 22.6552C103.59 21.0298 101.21 18.4429 98.4855 15.0246C96.2074 12.1656 95.3471 10.8047 94.2526 10.9153C91.9439 11.1491 90.8487 17.6804 90.1927 21.4007C90.1927 21.4013 89.8767 23.1934 85.7741 42.4276C85.5806 42.2333 85.3484 42.0767 85.0614 42.025C82.5215 41.567 80.0303 40.8255 77.6469 39.8173C76.937 39.5169 76.124 39.8632 75.8309 40.5906C75.5378 41.3181 75.8757 42.1512 76.5856 42.4515C79.1563 43.5389 81.8406 44.3378 84.5794 44.8317C84.8255 44.8761 85.0588 44.831 85.2784 44.7505C85.1473 45.364 85.0136 45.9893 84.8756 46.6353C84.7272 46.5882 84.573 46.5528 84.4089 46.56C83.9972 46.578 83.5849 46.5872 83.1727 46.5872C81.2319 46.5872 79.2903 46.3864 77.3884 45.9884C76.6359 45.831 75.9013 46.3283 75.7476 47.0994C75.594 47.8704 76.0794 48.6232 76.8319 48.7806C78.9176 49.2171 81.0448 49.437 83.1727 49.4371C83.5393 49.4371 83.9059 49.426 84.2722 49.4129C83.5173 52.8368 82.6569 56.1607 81.7402 59.3324C81.9163 59.6812 81.9632 60.0956 81.8152 60.4911C78.71 68.7891 76.0348 73.2853 74.0705 75.9021L74.0707 75.9017C73.739 76.3441 73.0827 77.2034 72.3026 78.4855C71.5256 79.7636 70.6386 81.4469 69.8891 83.476L69.8889 83.4764C69.5055 84.5136 69.2263 85.5181 68.9672 86.6366V86.6364C68.7131 87.7343 68.5771 88.883 68.5773 90.0179C68.577 92.7481 69.3603 95.347 71.0385 97.1619C72.0383 98.2449 73.2239 98.9778 74.5799 99.4577C75.9338 99.9357 77.4579 100.148 79.0621 100.148C81.6487 100.149 84.4317 99.5938 86.9701 98.8259C92.505 97.1558 97.8612 94.8372 102.243 91.2464C106.621 87.666 110.002 82.6704 110.907 77.1743V77.1745C111.042 76.3562 111.12 75.5282 111.12 74.719C111.12 73.3684 110.904 72.0788 110.407 70.935C110.021 70.0424 109.411 69.2138 108.684 68.6067C107.956 67.9968 107.127 67.611 106.272 67.5169C106.131 67.5012 105.988 67.4935 105.845 67.4935C105.039 67.4928 104.206 67.7435 103.439 68.1995C102.673 68.6534 101.983 69.3113 101.479 70.0618C100.403 71.6504 99.9517 73.7459 99.954 75.8863L99.9573 76.2104L99.9574 76.2114C99.9619 76.4434 99.9702 76.7027 99.9703 76.9821C99.9694 77.4097 99.9529 77.886 99.8468 78.4003C99.7414 78.9111 99.5335 79.4738 99.1434 79.9754L99.1428 79.9761C98.3066 81.041 97.2183 81.3408 96.7839 81.4718L96.7831 81.4721C95.145 81.9409 92.7833 82.3928 90.7194 82.7522C88.661 83.1097 86.9217 83.3659 86.6249 83.4094C85.8646 83.5207 85.1602 82.9794 85.0517 82.2003C84.943 81.4212 85.4713 80.6994 86.2316 80.5881C86.5148 80.5467 88.234 80.2933 90.2548 79.9424C92.2698 79.5936 94.6075 79.1386 96.0318 78.7281C96.3755 78.6349 96.7619 78.4755 96.9671 78.2007C97.0286 78.1204 97.0829 78.0113 97.1268 77.8054C97.17 77.6027 97.1899 77.3169 97.1891 76.9821C97.1892 76.7631 97.1818 76.5238 97.1767 76.2697L97.1768 76.2706C97.1741 76.1428 97.1728 76.0147 97.1728 75.8863C97.175 73.3586 97.6842 70.6882 99.1891 68.4438C99.9305 67.3439 100.909 66.4096 102.044 65.7341C103.178 65.0605 104.479 64.6443 105.845 64.6435C106.086 64.6435 106.328 64.6566 106.571 64.6835C108.041 64.8469 109.364 65.4943 110.445 66.4005C111.527 67.3095 112.384 68.48 112.948 69.7763C113.639 71.3685 113.901 73.0629 113.901 74.719C113.901 75.7138 113.807 76.698 113.649 77.6512V77.6515C112.586 84.0198 108.776 89.5415 103.979 93.4728C99.186 97.395 93.4865 99.8273 87.7563 101.56C85.0415 102.378 82.0301 102.996 79.0621 102.997C77.2224 102.997 75.3947 102.758 73.675 102.153C71.9575 101.549 70.3476 100.565 69.0161 99.1182C69.0093 99.1107 69.0039 99.1024 68.997 99.0949C62.9065 103.673 58.0276 107.917 54.4028 111.284L54.4027 111.284C51.4138 114.057 49.1788 116.329 47.5993 118.46C46.0186 120.596 45.0806 122.563 44.5844 124.892C44.3527 125.989 44.2705 126.944 44.2704 127.756C44.2739 129.517 44.6466 130.583 44.7955 130.992C46.0978 134.577 49.5377 136.39 50.2678 136.744C52.4275 137.851 55.6431 138.499 59.3858 139.21L59.3875 139.211C63.933 140.084 66.6633 140.576 68.6429 140.975C70.6177 141.372 71.878 141.688 73.3543 142.187L73.3545 142.187C74.211 142.476 75.5224 142.954 77.0936 143.682C77.6177 143.926 77.9406 144.472 77.9086 145.06C77.9054 145.119 77.9004 145.225 77.9003 145.38C77.8994 145.825 77.9472 146.647 78.2072 147.52C78.4683 148.397 78.9243 149.304 79.7336 150.044C80.7448 150.968 82.0111 151.366 83.351 151.369C84.74 151.374 86.1702 150.907 87.1737 150.225C88.334 149.439 89.0184 148.37 89.4484 147.162C89.874 145.961 90.005 144.64 90.0035 143.561C90.0035 142.468 89.8755 141.634 89.8368 141.401C89.6526 140.298 89.3226 139.413 88.8401 138.492C88.3584 137.574 87.7111 136.627 86.9327 135.497C84.4381 131.868 81.6581 130.011 81.1296 129.667L81.1291 129.667C78.9462 128.238 76.8918 127.523 75.469 127.145C74.7254 126.948 74.2787 126.171 74.4712 125.409C74.6636 124.647 75.4223 124.189 76.1658 124.386C77.7862 124.816 80.1304 125.632 82.6258 127.264L82.6256 127.264L82.626 127.265C82.6259 127.264 82.6259 127.264 82.6258 127.264C83.3022 127.708 86.4143 129.794 89.2062 133.855C89.9815 134.984 90.694 136.012 91.2883 137.14C91.8819 138.264 92.3443 139.494 92.579 140.926C92.6324 141.25 92.7846 142.246 92.7847 143.561C92.7846 143.605 92.7808 143.655 92.7803 143.7C95.0461 144.551 97.2411 145.211 99.2651 145.746C96.9309 155.842 89.6468 164.207 78.4547 166.738C69.5521 168.751 60.7004 164.383 54.1642 157.928C51.8712 155.664 48.7708 150.029 45.1829 152.382C42.3602 154.233 44.0524 158.252 45.1619 160.81C53.1892 179.321 75.6008 182.796 90.1989 173.097C100.267 166.408 106.193 157.91 108.473 147.834C111.222 148.385 114.133 148.853 117.133 148.972C119.303 159.016 119.075 166.713 118.149 172.437C117.593 175.863 116.064 183.081 119.781 186.74C123.192 190.096 129.477 188.937 130.595 188.731C133.053 188.278 136.367 187.477 137.9 184.616C139.3 182.004 138.572 178.21 135.99 176.838C134.886 176.25 133.456 176.03 132.841 174.923C132.299 173.946 132.565 172.817 132.697 172.286C139.174 146.255 142.425 137.573 142.425 137.572C143.172 135.814 143.904 133.962 144.604 132.017C145.011 130.889 145.388 129.777 145.743 128.68C147.195 125.211 148.264 121.771 149.163 118.79C150.64 113.892 151.368 109.835 151.159 103.289C150.613 103.335 150.065 103.365 149.514 103.365C146.546 103.364 143.535 102.746 140.82 101.928ZM121.987 38.4787C122.497 37.8899 123.376 37.8357 123.95 38.3579C125.406 39.6836 127.321 40.517 129.262 40.6696L129.262 40.6697C129.448 40.6846 129.63 40.6929 129.806 40.6929C130.338 40.6935 130.802 40.6156 131.172 40.4528C131.401 40.3537 131.619 40.1978 131.77 40.0297C131.924 39.8603 132.009 39.6907 132.042 39.5396C132.21 38.7716 132.954 38.2887 133.703 38.4609C134.453 38.633 134.924 39.3951 134.756 40.163C134.599 40.8809 134.243 41.4923 133.804 41.9742C133.362 42.4574 132.835 42.823 132.264 43.0738C131.432 43.4364 130.587 43.5421 129.806 43.5428C129.546 43.5427 129.292 43.5307 129.045 43.511H129.046C126.486 43.3046 124.028 42.2344 122.105 40.4903C121.531 39.9682 121.478 39.0676 121.987 38.4787ZM106.626 40.7263C105.19 42.7411 102.94 44.0426 100.515 44.2615C100.283 44.2819 100.051 44.2919 99.8198 44.2919C97.6309 44.2877 95.4885 43.4129 93.9066 41.8417C93.3563 41.2928 93.3443 40.3907 93.88 39.8267C94.4156 39.2627 95.296 39.2504 95.8464 39.7993C96.8771 40.8334 98.3681 41.446 99.8198 41.442C99.9731 41.442 100.126 41.4353 100.278 41.4219C101.868 41.2889 103.443 40.3778 104.376 39.0514C104.827 38.4147 105.697 38.2735 106.318 38.736C106.94 39.1985 107.078 40.0896 106.626 40.7263ZM113.85 51.1864C113.206 51.5944 112.485 51.7869 111.762 51.7887C110.771 51.7899 109.696 51.4072 108.965 50.4703C108.489 49.8531 108.591 48.9569 109.193 48.4686C109.795 47.9802 110.67 48.0846 111.146 48.7018C111.227 48.815 111.441 48.9376 111.762 48.9389C111.985 48.9406 112.222 48.8703 112.379 48.7676C112.617 48.6157 112.831 48.3766 113.003 48.0496C113.174 47.7255 113.292 47.3201 113.334 46.9162C113.409 46.2065 113.986 45.6627 114.682 45.6449C115.378 45.6271 115.981 46.1407 116.09 46.8457C116.153 47.2577 116.287 47.6639 116.468 47.9885C116.651 48.3158 116.871 48.5557 117.115 48.7095L117.115 48.71C117.281 48.8175 117.528 48.89 117.757 48.8881C118.073 48.8869 118.284 48.7706 118.369 48.6585C118.862 48.0549 119.739 47.9749 120.328 48.4798C120.917 48.9848 120.995 49.8835 120.502 50.4871C119.769 51.3779 118.722 51.7391 117.757 51.738C117.026 51.7361 116.301 51.5414 115.654 51.1345C115.654 51.1345 115.654 51.1346 115.654 51.1346L115.653 51.1342C115.653 51.1343 115.654 51.1344 115.654 51.1345C115.319 50.9224 115.03 50.6661 114.773 50.3888C114.509 50.6881 114.203 50.9604 113.85 51.1864Z" fill="#79A0CC"/>
</svg>
