<svg width="200" height="200" viewBox="0 0 200 200" fill="none" xmlns="http://www.w3.org/2000/svg">
<path d="M140.82 101.928C135.091 100.195 129.391 97.7633 124.597 93.8416C119.801 89.9097 115.99 84.3879 114.929 78.0194C114.771 77.0664 114.677 76.0823 114.677 75.0877C114.677 73.4317 114.939 71.7373 115.63 70.1451C116.194 68.849 117.05 67.6784 118.132 66.7692C119.213 65.8627 120.537 65.2149 122.007 65.0517C122.25 65.0247 122.492 65.0116 122.732 65.0116C124.099 65.0124 125.4 65.4286 126.534 66.1022C127.669 66.7779 128.647 67.7123 129.388 68.8124L129.388 68.8119C130.892 71.0562 131.403 73.7268 131.405 76.2553L131.401 76.6382V76.6388C131.396 76.8945 131.388 77.1352 131.388 77.3554C131.388 77.6889 131.408 77.9738 131.451 78.1757C131.494 78.3805 131.548 78.4889 131.609 78.5685C131.816 78.8441 132.202 79.0031 132.545 79.0963C133.97 79.5068 136.307 79.9619 138.322 80.3109C140.343 80.662 142.063 80.9155 142.346 80.9569C143.106 81.0682 143.634 81.79 143.526 82.5691C143.417 83.3482 142.713 83.8895 141.952 83.7782C141.655 83.7347 139.916 83.4783 137.857 83.1207C135.793 82.7611 133.432 82.309 131.794 81.8402L131.792 81.8398C131.359 81.7089 130.271 81.409 129.434 80.3449L129.433 80.3434C129.044 79.8429 128.836 79.2814 128.731 78.7716C128.625 78.2582 128.608 77.7826 128.607 77.3554C128.607 77.0736 128.616 76.8123 128.621 76.5785V76.579L128.624 76.2553C128.626 74.1151 128.174 72.0191 127.098 70.43L127.098 70.4294C126.594 69.6791 125.904 69.0214 125.138 68.5675C124.371 68.1116 123.539 67.8608 122.733 67.8616C122.59 67.8616 122.447 67.8693 122.305 67.885C121.451 67.9791 120.622 68.365 119.894 68.975C119.167 69.5821 118.557 70.4108 118.171 71.3038C117.674 72.4476 117.458 73.7374 117.458 75.0877C117.458 75.8968 117.536 76.7245 117.671 77.5427C118.574 83.0385 121.956 88.0341 126.334 91.6152C130.715 95.2052 136.072 97.5239 141.607 99.194C144.145 99.962 146.928 100.518 149.514 100.516C151.118 100.516 152.643 100.304 153.997 99.8258C155.353 99.3459 156.539 98.6129 157.539 97.53C159.217 95.7151 160 93.1171 160 90.3874C160 89.2522 159.864 88.1034 159.61 87.0053C159.376 85.9942 159.134 85.0283 158.749 83.9478L158.75 83.9489C158.052 82.0017 157.017 79.7323 154.494 76.253C152.508 73.5206 151.127 72.1332 149.943 70.8414C148.761 69.5616 147.733 68.2822 146.874 66.1754L146.873 66.1748C145.976 63.9978 145.661 62.0662 145.53 60.8679C145.508 60.6723 145.527 60.4816 145.578 60.3041C145.055 57.0011 144.494 53.4768 143.891 49.7061C144.047 49.7569 144.21 49.7901 144.383 49.781C147.003 49.6426 149.611 49.2814 152.173 48.7015C152.922 48.5317 153.396 47.7711 153.23 47.0027C153.065 46.2342 152.323 45.7489 151.573 45.9187C149.161 46.4645 146.706 46.8046 144.24 46.9348C143.954 46.9498 143.71 47.0725 143.497 47.2354C143.353 46.3357 143.207 45.423 143.059 44.4962C143.236 44.5218 143.422 44.513 143.607 44.463C146.107 43.7868 148.606 43.1105 151.105 42.4349C151.848 42.2343 152.291 41.4547 152.095 40.6937C151.9 39.9327 151.139 39.4786 150.396 39.6792C147.896 40.3549 145.397 41.0313 142.897 41.7075C142.798 41.7342 142.721 41.7945 142.634 41.8402C142.298 39.7444 141.953 37.5888 141.596 35.3559C141.075 32.0969 137.678 10.8381 133.832 10.9299C132.942 10.9515 131.759 12.677 129.396 16.1295C127.639 18.6969 126.346 21.002 125.443 22.7588C118.678 22.7241 111.914 22.6893 105.15 22.6552C103.591 21.0298 101.21 18.4429 98.4857 15.0246C96.2076 12.1656 95.3473 10.8047 94.2527 10.9153C91.944 11.1491 90.8488 17.6804 90.1929 21.4007C90.1929 21.4013 89.8769 23.1934 85.7742 42.4276C85.5807 42.2333 85.3485 42.0767 85.0615 42.025C82.5216 41.567 80.0305 40.8255 77.647 39.8173C76.9371 39.5169 76.1241 39.8632 75.831 40.5906C75.5379 41.3181 75.8758 42.1512 76.5857 42.4515C79.1564 43.5389 81.8407 44.3378 84.5795 44.8317C84.8257 44.8761 85.0589 44.831 85.2785 44.7505C85.1474 45.364 85.0137 45.9893 84.8757 46.6353C84.7273 46.5882 84.5732 46.5528 84.409 46.56C83.9973 46.578 83.585 46.5872 83.1729 46.5872C81.2321 46.5872 79.2904 46.3864 77.3885 45.9884C76.636 45.831 75.9015 46.3283 75.7477 47.0994C75.5941 47.8704 76.0795 48.6232 76.832 48.7806C78.9177 49.2171 81.0449 49.437 83.1729 49.4371C83.5395 49.4371 83.906 49.426 84.2724 49.4129C83.5175 52.8368 82.6571 56.1607 81.7403 59.3324C81.9164 59.6812 81.9634 60.0956 81.8153 60.4911C78.7101 68.7891 76.0349 73.2853 74.0706 75.9021L74.0708 75.9017C73.7391 76.3441 73.0828 77.2034 72.3028 78.4855C71.5257 79.7636 70.6388 81.4469 69.8892 83.476L69.889 83.4764C69.5056 84.5136 69.2264 85.5181 68.9674 86.6366V86.6364C68.7132 87.7343 68.5773 88.883 68.5774 90.0179C68.5772 92.7481 69.3604 95.347 71.0386 97.1619C72.0384 98.2449 73.224 98.9778 74.58 99.4577C75.934 99.9357 77.458 100.148 79.0622 100.148C81.6488 100.149 84.4318 99.5938 86.9703 98.8259C92.5051 97.1558 97.8613 94.8372 102.243 91.2464C106.621 87.666 110.003 82.6704 110.907 77.1743V77.1745C111.042 76.3562 111.12 75.5282 111.12 74.719C111.12 73.3684 110.904 72.0788 110.407 70.935C110.021 70.0424 109.411 69.2138 108.684 68.6067C107.956 67.9968 107.127 67.611 106.273 67.5169C106.131 67.5012 105.988 67.4935 105.846 67.4935C105.039 67.4928 104.207 67.7435 103.439 68.1995C102.673 68.6534 101.983 69.3113 101.479 70.0618C100.404 71.6504 99.9518 73.7459 99.9541 75.8863L99.9574 76.2104L99.9575 76.2114C99.962 76.4434 99.9703 76.7027 99.9704 76.9821C99.9695 77.4097 99.953 77.886 99.8469 78.4003C99.7415 78.9111 99.5337 79.4738 99.1435 79.9754L99.143 79.9761C98.3068 81.041 97.2184 81.3408 96.7841 81.4718L96.7832 81.4721C95.1452 81.9409 92.7834 82.3928 90.7195 82.7522C88.6612 83.1097 86.9218 83.3659 86.6251 83.4094C85.8647 83.5207 85.1603 82.9794 85.0518 82.2003C84.9431 81.4212 85.4714 80.6994 86.2317 80.5881C86.5149 80.5467 88.2341 80.2933 90.2549 79.9424C92.27 79.5936 94.6076 79.1386 96.032 78.7281C96.3756 78.6349 96.762 78.4755 96.9672 78.2007C97.0288 78.1204 97.083 78.0113 97.1269 77.8054C97.1702 77.6027 97.19 77.3169 97.1892 76.9821C97.1893 76.7631 97.182 76.5238 97.1768 76.2697L97.1769 76.2706C97.1742 76.1428 97.1729 76.0147 97.1729 75.8863C97.1751 73.3586 97.6844 70.6882 99.1892 68.4438C99.9306 67.3439 100.909 66.4096 102.044 65.7341C103.178 65.0605 104.479 64.6443 105.846 64.6435C106.086 64.6435 106.329 64.6566 106.571 64.6835C108.041 64.8469 109.364 65.4943 110.445 66.4005C111.528 67.3095 112.384 68.48 112.948 69.7763C113.639 71.3685 113.901 73.0629 113.901 74.719C113.901 75.7138 113.807 76.698 113.649 77.6512V77.6515C112.587 84.0198 108.776 89.5415 103.979 93.4728C99.1861 97.395 93.4866 99.8273 87.7564 101.56C85.0416 102.378 82.0303 102.996 79.0622 102.997C77.2225 102.997 75.3948 102.758 73.6752 102.153C71.9576 101.549 70.3477 100.565 69.0163 99.1182C69.0094 99.1107 69.004 99.1024 68.9972 99.0949C62.9067 103.673 58.0277 107.917 54.4029 111.284L54.4028 111.284C51.414 114.057 49.1789 116.329 47.5994 118.46C46.0188 120.596 45.0807 122.563 44.5845 124.892C44.3528 125.989 44.2706 126.944 44.2706 127.756C44.274 129.517 44.6467 130.583 44.7956 130.992C46.0979 134.577 49.5379 136.39 50.2679 136.744C52.4276 137.851 55.6432 138.499 59.3859 139.21L59.3877 139.211C63.9332 140.084 66.6634 140.576 68.643 140.975C70.6178 141.372 71.8781 141.688 73.3544 142.187L73.3546 142.187C74.2112 142.476 75.5225 142.954 77.0938 143.682C77.6178 143.926 77.9407 144.472 77.9087 145.06C77.9055 145.119 77.9005 145.225 77.9004 145.38C77.8995 145.825 77.9473 146.647 78.2073 147.52C78.4684 148.397 78.9244 149.304 79.7337 150.044C80.7449 150.968 82.0112 151.366 83.3512 151.369C84.7401 151.374 86.1703 150.907 87.1739 150.225C88.3341 149.439 89.0186 148.37 89.4486 147.162C89.8741 145.961 90.0051 144.64 90.0036 143.561C90.0037 142.468 89.8757 141.634 89.837 141.401C89.6527 140.298 89.3227 139.413 88.8402 138.492C88.3585 137.574 87.7112 136.627 86.9328 135.497C84.4382 131.868 81.6582 130.011 81.1297 129.667L81.1293 129.667C78.9463 128.238 76.892 127.523 75.4691 127.145C74.7256 126.948 74.2788 126.171 74.4713 125.409C74.6637 124.647 75.4224 124.189 76.1659 124.386C77.7863 124.816 80.1305 125.632 82.6259 127.264L82.6257 127.264L82.6262 127.265C82.6261 127.264 82.626 127.264 82.6259 127.264C83.3023 127.708 86.4145 129.794 89.2063 133.855C89.9817 134.984 90.6941 136.012 91.2884 137.14C91.8821 138.264 92.3445 139.494 92.5791 140.926C92.6325 141.25 92.7847 142.246 92.7848 143.561C92.7847 143.605 92.7809 143.655 92.7805 143.7C95.0463 144.551 97.2413 145.211 99.2652 145.746C96.931 155.842 89.6469 164.207 78.4548 166.738C69.5522 168.751 60.7006 164.383 54.1644 157.928C51.8713 155.664 48.7709 150.029 45.183 152.382C42.3604 154.233 44.0525 158.252 45.162 160.81C53.1893 179.321 75.6009 182.796 90.199 173.097C100.267 166.408 106.193 157.91 108.473 147.834C111.222 148.385 114.133 148.853 117.134 148.972C119.303 159.016 119.075 166.713 118.149 172.437C117.593 175.863 116.064 183.081 119.781 186.74C123.192 190.096 129.477 188.937 130.595 188.731C133.053 188.278 136.367 187.477 137.9 184.616C139.3 182.004 138.572 178.21 135.991 176.838C134.886 176.25 133.456 176.03 132.841 174.923C132.299 173.946 132.566 172.817 132.697 172.286C139.174 146.255 142.425 137.573 142.425 137.572C143.172 135.814 143.904 133.962 144.604 132.017C145.011 130.889 145.388 129.777 145.743 128.68C147.195 125.211 148.265 121.771 149.163 118.79C150.64 113.892 151.368 109.835 151.159 103.289C150.613 103.335 150.065 103.365 149.514 103.365C146.546 103.364 143.535 102.746 140.82 101.928ZM121.987 38.4787C122.497 37.8899 123.376 37.8357 123.951 38.3579C125.407 39.6836 127.321 40.517 129.262 40.6696L129.263 40.6697C129.448 40.6846 129.631 40.6929 129.806 40.6929C130.338 40.6935 130.803 40.6156 131.172 40.4528C131.401 40.3537 131.619 40.1978 131.771 40.0297C131.925 39.8603 132.01 39.6907 132.042 39.5396C132.21 38.7716 132.954 38.2887 133.703 38.4609C134.453 38.633 134.924 39.3951 134.756 40.163C134.599 40.8809 134.243 41.4923 133.804 41.9742C133.362 42.4574 132.835 42.823 132.264 43.0738C131.432 43.4364 130.587 43.5421 129.806 43.5428C129.547 43.5427 129.292 43.5307 129.046 43.511H129.046C126.486 43.3046 124.028 42.2344 122.105 40.4903C121.531 39.9682 121.478 39.0676 121.987 38.4787ZM106.626 40.7263C105.191 42.7411 102.94 44.0426 100.515 44.2615C100.283 44.2819 100.051 44.2919 99.8199 44.2919C97.631 44.2877 95.4886 43.4129 93.9068 41.8417C93.3564 41.2928 93.3445 40.3907 93.8801 39.8267C94.4157 39.2627 95.2961 39.2504 95.8465 39.7993C96.8772 40.8334 98.3682 41.446 99.8199 41.442C99.9732 41.442 100.126 41.4353 100.278 41.4219C101.868 41.2889 103.443 40.3778 104.376 39.0514C104.827 38.4147 105.697 38.2735 106.319 38.736C106.94 39.1985 107.078 40.0896 106.626 40.7263ZM113.85 51.1864C113.207 51.5944 112.485 51.7869 111.762 51.7887C110.771 51.7899 109.696 51.4072 108.966 50.4703C108.489 49.8531 108.591 48.9569 109.193 48.4686C109.795 47.9802 110.67 48.0846 111.147 48.7018C111.227 48.815 111.441 48.9376 111.762 48.9389C111.985 48.9406 112.222 48.8703 112.379 48.7676C112.617 48.6157 112.831 48.3766 113.003 48.0496C113.174 47.7255 113.292 47.3201 113.334 46.9162C113.409 46.2065 113.986 45.6627 114.682 45.6449C115.379 45.6271 115.981 46.1407 116.09 46.8457C116.153 47.2577 116.287 47.6639 116.469 47.9885C116.651 48.3158 116.871 48.5557 117.115 48.7095L117.116 48.71C117.281 48.8175 117.528 48.89 117.757 48.8881C118.073 48.8869 118.284 48.7706 118.369 48.6585C118.862 48.0549 119.739 47.9749 120.328 48.4798C120.917 48.9848 120.995 49.8835 120.503 50.4871C119.769 51.3779 118.722 51.7391 117.757 51.738C117.026 51.7361 116.301 51.5414 115.654 51.1345C115.654 51.1345 115.654 51.1346 115.654 51.1346L115.653 51.1342C115.653 51.1343 115.654 51.1344 115.654 51.1345C115.319 50.9224 115.03 50.6661 114.774 50.3888C114.509 50.6881 114.204 50.9604 113.85 51.1864Z" fill="#C33409"/>
</svg>
