<svg width="200" height="200" viewBox="0 0 200 200" fill="none" xmlns="http://www.w3.org/2000/svg">
<path d="M194.399 123.796C191.489 115.871 187.603 108.3 182.855 101.308C178.727 95.2305 175.014 90.7822 173.214 88.7038C165.129 79.3632 155.402 70.9503 147.095 64.4617C142.013 58.9414 136.366 55.9215 134.724 55.0909C134.335 54.8947 133.946 54.7215 133.558 54.5411C133.233 54.318 132.894 54.0838 132.598 53.8824L132.548 54.0772C112.129 45.2549 91.7741 56.8682 90.6936 57.5085C89.7449 58.0708 88.8471 58.6652 87.9716 59.274C87.5846 58.04 87.0902 56.737 86.4429 55.3933C81.8078 45.7778 73.1633 41.6327 70.349 40.2832C59.2074 34.9401 43.3911 34.3811 31.5348 42.8917C22.5765 49.322 19.1346 58.593 18.1201 61.4371C15.9281 67.5846 15.6295 73.4099 15.5181 75.9207C15.1324 84.5698 16.3395 86.3544 15.8866 94.1368C15.6282 98.5712 14.878 103.456 11.4473 106.297C8.64562 108.617 4.04417 109.767 3.65786 113.372C3.45219 115.289 4.75547 117.149 6.47212 118.044C8.18943 118.937 10.2291 119.011 12.1481 118.742C19.3621 117.73 25.5806 111.719 26.8074 104.573C27.3322 101.516 27.021 98.3869 26.7738 95.2954C26.4225 90.9076 25.3433 76.9167 30.7273 65.4635C32.6285 61.4188 36.0229 54.1973 43.931 50.8599C51.7699 47.5519 62.1021 48.8798 69.142 55.4898C74.5062 60.5265 76.027 66.8111 76.3909 71.05C67.842 83.6802 66.7358 98.1454 66.4016 102.537C66.1893 105.326 64.8992 126.519 78.4194 144.557C69.4466 147.286 59.9596 148.351 50.6071 147.588C49.425 147.491 48.2239 147.361 47.1356 146.893C42.8268 145.04 40.9836 138.358 36.2998 138.652C32.7946 138.873 31.0252 143.221 31.5652 146.675C32.0293 149.638 33.5929 152.418 35.8891 154.362C38.5089 156.576 41.9019 157.639 45.2324 158.488C64.4786 163.4 84.6373 162.972 104.503 162.497C111.552 164.06 118.575 163.69 126.222 163.279C127.064 163.234 127.866 163.19 128.649 163.144C138.344 163.859 148.141 163.181 157.639 161.115C158.574 160.912 159.556 160.669 160.245 160.006C161.636 158.663 161.102 156.188 159.697 154.859C158.295 153.528 156.327 153.015 154.479 152.435C153.284 152.06 152.112 151.624 150.951 151.156C152.298 147.658 152.338 144.675 152.336 144.241C152.317 138.526 149.253 134.747 145.048 129.433C144.214 128.379 143.47 127.456 142.738 126.649C143.961 125.204 145.184 123.759 146.406 122.314C146.887 121.747 146.814 120.899 146.243 120.421C145.673 119.943 144.821 120.016 144.341 120.583C143.151 121.989 141.96 123.397 140.77 124.803C140.277 124.436 139.754 124.139 139.199 123.89C139.749 121.666 140.469 119.484 141.365 117.376C141.656 116.693 141.335 115.904 140.649 115.615C139.962 115.326 139.17 115.645 138.879 116.328C137.932 118.554 137.172 120.856 136.589 123.202C132.952 122.83 129.305 124.438 128.955 124.598C126.257 125.826 125.387 127.192 123.313 127.05C120.935 126.886 119.318 124.896 119.065 124.589C115.975 120.845 116.796 113.126 120.755 110.092C124.283 107.389 127.541 110.52 135.939 109.487C137.128 109.341 139.596 109.036 142.391 108.162C147.502 109.47 152.257 110.85 157.083 112.687C162.399 114.711 167.794 116.777 172.331 120.198C174.889 122.126 177.195 124.561 178.236 127.58C179.453 131.111 178.869 135.194 180.723 138.439C183.128 142.647 189.696 143.673 193.281 140.4C195.465 138.407 196.402 135.329 196.363 132.38C196.324 129.431 195.417 126.566 194.399 123.796ZM136.937 137.563C137.735 136.382 138.903 135.407 140.363 134.952C141.074 134.73 141.831 135.125 142.054 135.833C142.277 136.541 141.88 137.295 141.169 137.516C140.381 137.76 139.684 138.314 139.179 139.062C138.674 139.806 138.384 140.73 138.386 141.598C138.387 142.181 138.511 142.734 138.764 143.226C139.105 143.887 138.842 144.696 138.179 145.035C137.515 145.374 136.702 145.113 136.362 144.452C135.895 143.546 135.686 142.562 135.686 141.598C135.688 140.157 136.14 138.749 136.937 137.563ZM129.589 145.839C130.126 145.994 130.436 146.552 130.281 147.087C129.471 149.88 128.498 152.627 127.369 155.31C127.153 155.823 126.56 156.065 126.044 155.85C125.528 155.635 125.285 155.044 125.501 154.531C126.6 151.92 127.547 149.246 128.335 146.528C128.49 145.993 129.051 145.685 129.589 145.839ZM118.383 150.635C120.51 148.117 122.635 145.599 124.762 143.081C125.122 142.655 125.761 142.6 126.189 142.958C126.617 143.316 126.672 143.951 126.312 144.377C124.186 146.895 122.06 149.413 119.934 151.932H119.934C119.574 152.358 118.935 152.413 118.507 152.055C118.079 151.697 118.024 151.061 118.383 150.635Z" fill="#79A0CC"/>
</svg>
