<svg width="200" height="200" viewBox="0 0 200 200" fill="none" xmlns="http://www.w3.org/2000/svg">
<path d="M151.884 51.9328C133.469 28.9133 106.064 25.6784 92.6556 25.6051C82.1403 24.7652 71.3567 27.4587 62.5039 33.2354C51.582 40.3626 43.8657 51.8545 39.9241 64.3301C35.9825 76.8051 35.619 90.2205 37.3489 103.194C38.7251 113.51 41.5588 123.943 47.7141 132.274C47.6515 137.629 48.2152 142.99 49.4691 148.194C50.2524 151.447 51.7252 155.093 54.9196 156.036C57.0805 156.675 59.4597 155.804 61.1847 154.348C62.9105 152.892 64.1081 150.918 65.2751 148.98L67.4638 145.346C70.5803 145.97 73.7824 146.049 76.9455 145.429C78.2627 145.17 79.5144 144.909 79.5144 144.909C82.4058 144.082 84.379 142.659 85.2735 141.99C87.1818 140.564 88.6654 139.214 89.9297 137.987C88.8378 135.893 87.7467 133.343 86.9277 130.344C85.9099 126.616 85.5707 123.151 85.5707 120.163C85.5707 118.126 85.7306 116.321 85.9384 114.793C83.623 114.968 81.2219 115.238 78.7943 115.242C76.4166 115.242 73.9966 114.967 71.6616 113.985C70.9365 113.679 70.5949 112.841 70.8987 112.112C71.2024 111.383 72.0364 111.04 72.7615 111.345C74.6152 112.126 76.63 112.381 78.7943 112.381C82.0441 112.386 85.5778 111.789 89.1585 111.783C91.4523 111.783 93.7859 112.038 96.0495 112.934C99.2634 114.22 101.687 116.496 104.097 118.306C106.346 120.013 108.739 121.442 111.258 121.929L111.259 121.929C111.837 122.042 112.435 122.101 113.029 122.101C114.988 122.102 116.861 121.464 118.093 120.208C118.964 119.338 119.497 117.98 119.491 116.719C119.489 115.745 119.196 114.869 118.622 114.22C118.239 113.787 117.771 113.455 117.191 113.165C116.613 112.876 115.93 112.64 115.181 112.415C113.688 111.956 111.934 111.573 110.3 110.558C108.221 109.246 107.01 107.288 106.008 105.398C105.009 103.493 104.181 101.599 103.082 100.168C102.013 98.7663 100.689 97.7107 99.1413 96.8517C97.5956 95.9942 95.8282 95.3454 93.9386 94.7899C90.1584 93.6715 85.9121 92.9538 82.0256 91.4135C79.4384 90.3845 76.9874 88.9614 75.0394 86.7462C74.5188 86.154 74.5741 85.2498 75.1631 84.7264C75.7521 84.203 76.6518 84.2587 77.1724 84.8508C79.4949 87.503 82.8958 88.8925 86.7628 89.9672C90.6166 91.0486 94.8527 91.787 98.6555 93.4329C101.186 94.5311 103.547 96.0702 105.342 98.4275C106.725 100.252 107.586 102.294 108.523 104.056C109.456 105.831 110.426 107.269 111.808 108.131C112.616 108.642 113.657 108.991 114.814 109.327C115.969 109.668 117.23 109.994 118.456 110.601C119.271 111.007 120.073 111.552 120.751 112.32L120.751 112.32C121.858 113.575 122.339 115.169 122.338 116.719C122.331 118.737 121.559 120.75 120.113 122.225C118.202 124.152 115.573 124.961 113.029 124.963C112.249 124.963 111.473 124.886 110.716 124.738C110.716 124.738 110.716 124.738 110.716 124.738L110.715 124.738C110.715 124.738 110.715 124.738 110.716 124.738C107.519 124.109 104.785 122.406 102.384 120.592C99.8353 118.649 97.5687 116.599 95.0057 115.596C93.2001 114.88 91.2464 114.644 89.1585 114.644C89.0526 114.644 88.9412 114.655 88.8347 114.656C88.6055 116.179 88.4176 118.032 88.4176 120.163C88.4177 122.933 88.732 126.139 89.6731 129.587C90.6615 133.207 92.0805 136.135 93.3711 138.323C93.4291 138.421 93.4466 138.529 93.479 138.633C95.3567 140.552 97.5804 142.568 98.6163 146.225C99.2661 148.523 98.6045 148.489 99.2633 157.496C99.3905 159.228 99.4003 159.886 98.9958 160.684C97.5382 163.565 92.9927 162.143 90.209 163.759C87.44 165.368 87.4726 169.807 89.7079 172.107C91.9431 174.406 95.5025 174.871 98.6586 174.356C108.737 172.708 115.429 163.219 120.54 154.334C125.858 145.091 130.775 135.547 134.066 125.392C136.084 119.164 137.466 112.731 138.209 106.223C138.889 102.222 139.579 96.1271 139.565 88.6183C139.542 76.6611 137.68 64.3224 132.582 53.6529C142.64 60.2226 146.501 69.9349 149.647 77.8908C151.417 82.3652 155.48 93.1884 153.627 106.822C152.916 112.054 152.038 118.517 147.812 125.332C143.319 132.577 136.992 137.082 138.582 141.045C139.21 142.614 140.763 143.308 141.137 143.46C146.489 145.65 154.886 137.215 158.473 132.639C160.067 130.606 166.655 121.749 167.195 103.413C167.429 95.4752 168.114 72.221 151.884 51.9328ZM76.1623 125.456L76.163 125.456C77.1074 125.984 77.8842 126.752 78.4501 127.65C79.012 128.549 79.3718 129.59 79.3747 130.696C79.377 131.516 79.1611 132.377 78.6742 133.134C78.2487 133.798 77.3679 133.99 76.7069 133.562C76.0458 133.135 75.8548 132.249 76.2803 131.585C76.449 131.318 76.5256 131.038 76.5278 130.696C76.5308 130.242 76.3634 129.685 76.0426 129.178C75.7258 128.669 75.2642 128.224 74.7857 127.961C73.6852 127.344 72.2798 127.16 70.7037 127.164C70.1464 127.164 69.5723 127.185 68.9916 127.209C68.2061 127.241 67.5432 126.627 67.5108 125.838C67.4785 125.048 68.089 124.382 68.8745 124.349C69.463 124.325 70.0758 124.302 70.7037 124.302C72.463 124.305 74.3808 124.473 76.1623 125.456Z" fill="#C33409"/>
</svg>
