<svg width="200" height="200" viewBox="0 0 200 200" fill="none" xmlns="http://www.w3.org/2000/svg">
<path d="M151.884 51.9328C133.469 28.9133 106.064 25.6784 92.6557 25.6051C82.1404 24.7652 71.3568 27.4587 62.5041 33.2354C51.5821 40.3626 43.8658 51.8545 39.9242 64.3301C35.9826 76.8051 35.6191 90.2205 37.3491 103.194C38.7252 113.51 41.5589 123.943 47.7142 132.274C47.6517 137.629 48.2154 142.99 49.4692 148.194C50.2525 151.447 51.7253 155.093 54.9197 156.036C57.0806 156.675 59.4598 155.804 61.1849 154.348C62.9107 152.892 64.1082 150.918 65.2752 148.98L67.4639 145.346C70.5805 145.97 73.7825 146.049 76.9457 145.429C78.2628 145.17 79.5145 144.909 79.5145 144.909C82.4059 144.082 84.3791 142.659 85.2737 141.99C87.1819 140.564 88.6656 139.214 89.9298 137.987C88.8379 135.893 87.7468 133.343 86.9279 130.344C85.91 126.616 85.5709 123.151 85.5709 120.163C85.5709 118.126 85.7307 116.321 85.9385 114.793C83.6231 114.968 81.222 115.238 78.7944 115.242C76.4167 115.242 73.9968 114.967 71.6618 113.985C70.9367 113.679 70.595 112.841 70.8988 112.112C71.2025 111.383 72.0365 111.04 72.7617 111.345C74.6154 112.126 76.6301 112.381 78.7944 112.381C82.0442 112.386 85.5779 111.789 89.1586 111.783C91.4524 111.783 93.786 112.038 96.0496 112.934C99.2636 114.22 101.687 116.496 104.097 118.306C106.346 120.013 108.739 121.442 111.259 121.929L111.259 121.929C111.838 122.042 112.435 122.101 113.029 122.101C114.988 122.102 116.862 121.464 118.093 120.208C118.964 119.338 119.497 117.98 119.491 116.719C119.489 115.745 119.196 114.869 118.622 114.22C118.239 113.787 117.771 113.455 117.191 113.165C116.613 112.876 115.93 112.64 115.181 112.415C113.688 111.956 111.934 111.573 110.3 110.558C108.221 109.246 107.01 107.288 106.008 105.398C105.01 103.493 104.181 101.599 103.082 100.168C102.013 98.7663 100.689 97.7107 99.1414 96.8517C97.5957 95.9942 95.8283 95.3454 93.9387 94.7899C90.1586 93.6715 85.9122 92.9538 82.0257 91.4135C79.4385 90.3845 76.9875 88.9614 75.0396 86.7462C74.5189 86.154 74.5742 85.2498 75.1633 84.7264C75.7522 84.203 76.6519 84.2587 77.1726 84.8508C79.495 87.503 82.896 88.8925 86.7629 89.9672C90.6168 91.0486 94.8528 91.787 98.6556 93.4329C101.186 94.5311 103.547 96.0702 105.342 98.4275C106.725 100.252 107.586 102.294 108.523 104.056C109.456 105.831 110.426 107.269 111.808 108.131C112.616 108.642 113.658 108.991 114.814 109.327C115.969 109.668 117.23 109.994 118.456 110.601C119.271 111.007 120.073 111.552 120.751 112.32L120.751 112.32C121.858 113.575 122.339 115.169 122.338 116.719C122.331 118.737 121.559 120.75 120.113 122.225C118.202 124.152 115.574 124.961 113.029 124.963C112.25 124.963 111.473 124.886 110.716 124.738C110.716 124.738 110.716 124.738 110.716 124.738L110.716 124.738C110.716 124.738 110.716 124.738 110.716 124.738C107.519 124.109 104.786 122.406 102.384 120.592C99.8354 118.649 97.5689 116.599 95.0058 115.596C93.2003 114.88 91.2465 114.644 89.1586 114.644C89.0528 114.644 88.9413 114.655 88.8349 114.656C88.6056 116.179 88.4178 118.032 88.4178 120.163C88.4178 122.933 88.7321 126.139 89.6733 129.587C90.6616 133.207 92.0806 136.135 93.3712 138.323C93.4293 138.421 93.4467 138.529 93.4791 138.633C95.3568 140.552 97.5805 142.568 98.6164 146.225C99.2662 148.523 98.6046 148.489 99.2635 157.496C99.3907 159.228 99.4004 159.886 98.9959 160.684C97.5384 163.565 92.9928 162.143 90.2091 163.759C87.4401 165.368 87.4727 169.807 89.708 172.107C91.9433 174.406 95.5026 174.871 98.6588 174.356C108.737 172.708 115.429 163.219 120.54 154.334C125.859 145.091 130.775 135.547 134.066 125.392C136.084 119.164 137.466 112.731 138.209 106.223C138.889 102.222 139.579 96.1271 139.565 88.6183C139.543 76.6611 137.68 64.3224 132.582 53.6529C142.64 60.2226 146.501 69.9349 149.647 77.8908C151.417 82.3652 155.48 93.1884 153.627 106.822C152.917 112.054 152.038 118.517 147.812 125.332C143.319 132.577 136.992 137.082 138.582 141.045C139.21 142.614 140.763 143.308 141.137 143.46C146.489 145.65 154.886 137.215 158.473 132.639C160.067 130.606 166.655 121.749 167.196 103.413C167.429 95.4752 168.114 72.221 151.884 51.9328ZM76.1624 125.456L76.1631 125.456C77.1075 125.984 77.8843 126.752 78.4503 127.65C79.0121 128.549 79.3719 129.59 79.3748 130.696C79.3771 131.516 79.1612 132.377 78.6743 133.134C78.2489 133.798 77.368 133.99 76.707 133.562C76.0459 133.135 75.855 132.249 76.2804 131.585C76.4491 131.318 76.5257 131.038 76.5279 130.696C76.5309 130.242 76.3636 129.685 76.0427 129.178C75.7259 128.669 75.2644 128.224 74.7858 127.961C73.6853 127.344 72.2799 127.16 70.7038 127.164C70.1465 127.164 69.5724 127.185 68.9918 127.209C68.2063 127.241 67.5433 126.627 67.511 125.838C67.4787 125.048 68.0892 124.382 68.8746 124.349C69.4631 124.325 70.0759 124.302 70.7038 124.302C72.4632 124.305 74.381 124.473 76.1624 125.456Z" fill="#79A0CC"/>
</svg>
