<svg width="200" height="200" viewBox="0 0 200 200" fill="none" xmlns="http://www.w3.org/2000/svg">
<path d="M190.527 158.439C187.519 155.576 182.704 156.659 178.135 156.981C178.135 156.981 171.55 157.431 162.276 155.103C157.583 154.93 149.393 153.893 140.993 148.814C134.306 144.769 130.205 139.799 127.987 136.629C127.554 136.01 127.714 135.164 128.343 134.739C128.973 134.314 129.834 134.471 130.267 135.09C132.346 138.063 136.19 142.718 142.443 146.5C149.589 150.824 156.603 152.02 161.124 152.322C162.762 148.821 164.172 144.788 164.971 140.222C165.275 138.484 165.467 136.812 165.574 135.218C174.278 134.337 180.673 131.672 181.235 128.057C181.311 127.57 181.288 127.022 181.106 126.408C175.373 122.475 170.124 119.871 166.126 118.161C161.817 116.318 154.029 113.085 143.655 112.072C141.687 111.879 141.46 112.008 139.073 111.797C139.073 111.797 130.569 111.047 122.828 108.651C116.473 106.684 110.168 103.116 105.059 99.7115C96.3719 92.4699 91.4289 88.4022 83.7331 85.8108C73.641 82.4119 58.7208 81.4446 45.8678 87.7766C42.05 84.6006 35.1356 77.6443 32.7833 66.6767C32.4287 65.0207 30.9415 57.5097 33.6403 48.4051C36.541 38.6205 44.7427 25.423 56.8716 22.73C59.9331 22.0507 64.6303 22.9397 67.1953 19.913C67.6302 19.4001 69.1093 17.4828 68.6291 15.1242C68.255 13.2818 66.7881 11.6742 65.1881 11.1799C64.1062 10.8456 62.5501 10.8927 60.6746 10.9491C60.6746 10.9491 60.4862 10.9517 60.316 10.9623C48.9826 11.6603 39.6659 19.3498 39.6659 19.3498C31.2461 26.2981 18.1399 43.0179 19.6561 65.3326C20.7198 80.9901 28.4872 92.2032 33.1183 97.6999C22.671 109.803 18.8646 127.62 25.1023 139.094C30.0393 148.173 40.9559 152.72 39.8247 154.697C39.0021 156.137 33.2918 153.613 22.3907 154.318C19.9594 154.475 18.1811 154.733 16.1915 155.459C15.6073 155.673 6.96124 158.932 7.28138 163.832C7.42051 165.97 9.2332 167.912 11.1553 168.78C14.5348 170.306 17.6145 168.224 22.0031 167.258C26.9089 166.177 29.4558 167.369 37.5001 168.78C37.5001 168.78 52.0765 171.316 66.9711 170.853C72.9766 170.666 78.1462 169.972 82.2022 169.232C83.4275 168.521 84.988 167.358 86.1927 165.527C87.6074 163.379 88.0182 161.117 88.0202 159.109C88.0201 157.219 87.6498 155.6 87.4173 154.6C86.0307 148.573 81.6697 145.036 80.1677 143.937C79.5561 143.488 79.4314 142.636 79.8892 142.035C80.3469 141.434 81.2137 141.312 81.8253 141.762C83.5286 143.019 88.4796 146.982 90.1146 153.997C90.3504 155.018 90.7866 156.879 90.7865 159.109C90.7883 161.476 90.2897 164.312 88.5148 167.004C88.1298 167.587 87.7147 168.1 87.2908 168.576C93.713 169.708 103.086 170.449 113.823 168.018C117.013 167.297 119.898 166.384 122.49 165.404C121.257 164.699 119.991 163.921 118.703 163.047C113.004 159.179 108.909 154.91 106.091 151.41C105.617 150.821 105.719 149.967 106.318 149.501C106.917 149.036 107.787 149.135 108.261 149.724C110.949 153.063 114.85 157.129 120.275 160.811C122.875 162.575 125.389 163.956 127.683 165.041C127.915 165.151 128.081 165.327 128.214 165.523C129.222 165.964 130.366 166.427 131.644 166.877C138.797 169.392 144.083 169.406 151.791 169.731C169.056 170.461 171.702 171.626 180.46 170.302C189.633 168.917 191.812 166.872 192.471 164.974C193.229 162.793 192.226 160.057 190.527 158.439ZM145.525 140.435L145.525 140.434C145.525 140.434 145.525 140.435 145.525 140.435C145.617 139.156 146.116 138.146 146.614 137.452C147.11 136.756 147.622 136.34 147.789 136.209C148.386 135.741 149.257 135.837 149.733 136.424C150.209 137.01 150.111 137.865 149.514 138.333C149.454 138.38 149.164 138.613 148.879 139.011C148.595 139.411 148.335 139.942 148.285 140.627L148.285 140.628L148.276 140.854C148.276 141.462 148.457 141.971 148.665 142.36C148.873 142.749 149.093 142.989 149.146 143.045C149.663 143.597 149.626 144.457 149.063 144.965C148.501 145.472 147.626 145.436 147.109 144.883C146.974 144.739 146.577 144.301 146.216 143.623C145.853 142.946 145.51 142 145.51 140.854C145.51 140.717 145.515 140.577 145.525 140.435C145.525 140.435 145.525 140.435 145.525 140.435Z" fill="#79A0CC"/>
</svg>
