<svg width="200" height="200" viewBox="0 0 200 200" fill="none" xmlns="http://www.w3.org/2000/svg">
<path d="M151.947 12.7012C143.853 6.53799 131.822 5.31616 123.117 10.6246C119.143 13.0475 115.749 17.598 117.17 21.9599C117.712 23.6261 119.151 25.1679 120.94 25.2106C122.404 25.2452 123.676 24.3118 124.894 23.5167C129.339 20.6136 135.569 20.2648 139.469 21.3144C139.863 21.4206 146.985 23.4577 149.324 29.9276C150.995 34.5466 149.261 38.7526 148.145 41.4584C146.556 45.3118 144.267 47.7052 141.363 50.6825C136.41 55.7616 134.207 56.1362 131.042 59.3309C129.301 61.087 127.396 63.573 125.863 67.1555C124.473 66.1506 123.013 65.1808 121.453 64.3157C117.143 58.9657 110.361 54.7999 101.748 52.6102C95.3465 50.9823 88.5796 50.2828 82.7475 47.2313C75.7884 43.5909 70.8384 36.9362 63.7938 33.4574C60.5039 31.8327 56.652 30.8101 54.4268 27.9377C51.0591 23.5909 52.3347 16.1254 47.4368 13.5164C44.0003 11.6868 39.4361 13.908 37.6507 17.312C35.8646 20.7161 36.208 24.8052 37.0585 28.5392C39.1841 37.8639 44.2697 46.523 51.4359 53.0194C53.8758 55.2311 56.5909 57.2455 58.3699 59.9946C60.7437 63.6633 61.1641 68.1691 61.9742 72.4374C63.7937 82.0172 68.1053 91.7957 74.4131 99.683C72.2908 109.85 74.1977 122.049 74.9558 132.152C76.005 146.127 77.9608 160.039 80.809 173.773C81.7085 178.11 82.7404 182.535 85.1945 186.253C87.6492 189.973 91.8347 192.901 96.3578 192.719C100.881 192.537 105.194 188.385 104.406 184.027C103.964 181.584 102.172 179.628 100.817 177.53C98.9079 174.578 97.8869 171.29 97.5259 167.875C96.7552 164.349 96.4291 161.167 96.4292 158.373C96.4288 154.717 96.9406 151.689 97.5604 149.294C98.2861 146.484 99.2219 144.323 100.537 141.488C101.855 138.647 103.571 135.087 105.947 129.336C107.806 124.84 109.195 121.114 110.07 118.693C110.312 118.023 111.064 117.672 111.75 117.909C112.436 118.146 112.795 118.881 112.553 119.551C111.669 121.996 110.267 125.759 108.389 130.301C105.991 136.105 104.241 139.737 102.936 142.551C101.629 145.371 100.786 147.328 100.113 149.925C99.9089 150.716 99.7277 151.609 99.5651 152.55C100.305 152.302 101.081 152.178 101.85 152.178C103.83 152.181 105.848 152.955 107.172 154.565C107.626 155.12 107.533 155.93 106.965 156.374C106.396 156.817 105.568 156.726 105.114 156.171C104.395 155.277 103.132 154.749 101.85 154.752C100.833 154.752 99.8595 155.079 99.1703 155.685C99.1055 156.538 99.0628 157.426 99.0627 158.373C99.0629 160.894 99.3401 163.767 100.015 166.973L100.136 166.464C101.617 167.737 103.359 168.858 105.424 169.695C108.502 170.941 111.545 171.284 114.329 171.162C115.846 174.197 117.711 177.271 120.838 178.62C122.074 179.153 123.559 179.357 124.75 178.735C124.99 178.609 125.205 178.448 125.409 178.273C120.069 164.903 118.736 149.274 118.317 141.817C118.278 141.107 118.835 140.501 119.561 140.462C120.287 140.424 120.908 140.968 120.947 141.678C121.359 149.228 122.775 165.388 128.315 178.477C129.071 180.268 129.975 182.16 131.209 183.867C132.446 185.576 133.998 187.096 136.092 188.207L136.093 188.208C136.646 188.508 139.342 189.858 142.502 189.851C143.606 189.85 144.763 189.692 145.93 189.282L145.929 189.282C146.32 189.145 147.014 188.899 147.753 188.51C148.491 188.125 149.246 187.598 149.74 186.987C150.072 186.577 150.294 186.145 150.389 185.646C150.422 185.472 150.437 185.299 150.437 185.126C150.439 184.512 150.236 183.884 149.984 183.376C149.734 182.867 149.45 182.495 149.352 182.372L149.352 182.372C148.857 181.755 148.405 181.432 147.875 181.14C147.347 180.85 146.717 180.617 145.99 180.244L145.99 180.244L145.989 180.244C145.99 180.244 145.99 180.244 145.99 180.244C145.024 179.747 144.256 179.039 143.681 178.236C143.105 177.431 142.712 176.536 142.435 175.614C141.884 173.769 141.779 171.799 141.762 170.047C141.723 165.367 141.263 155.655 141.263 142.644C141.263 138.612 141.307 134.262 141.422 129.64C141.439 128.93 142.043 128.367 142.77 128.385C143.497 128.402 144.072 128.992 144.054 129.702C143.941 134.301 143.897 138.631 143.897 142.644C143.897 143.531 143.899 144.399 143.903 145.255C144.55 143.643 145.175 142.028 145.785 140.43C148.256 133.965 151.591 125.232 151.093 113.332C150.881 108.228 149.945 91.768 137.216 77.7106C137.061 77.5386 136.867 77.3279 136.697 77.1399C137.191 74.8123 137.938 72.9239 138.709 71.438C144.556 60.1681 157.258 59.5905 162.072 46.6336C163.266 43.4238 163.489 40.8072 163.579 39.3032C164.179 29.2903 160.042 18.8651 151.947 12.7012ZM116.209 151.798C116.01 152.294 115.437 152.539 114.929 152.345C113.067 151.631 111.106 151.156 109.117 150.937C108.575 150.877 108.186 150.399 108.247 149.869C108.308 149.339 108.797 148.958 109.339 149.018C111.499 149.256 113.626 149.772 115.65 150.547C116.158 150.741 116.408 151.301 116.209 151.798ZM116.691 146.968C114.528 146.968 112.367 146.968 110.204 146.968C109.659 146.968 109.217 146.536 109.217 146.003C109.217 145.47 109.659 145.037 110.204 145.037C112.367 145.037 114.528 145.037 116.691 145.037C117.237 145.037 117.679 145.47 117.679 146.003C117.679 146.536 117.237 146.968 116.691 146.968Z" fill="#79A0CC"/>
</svg>
