<svg width="200" height="200" viewBox="0 0 200 200" fill="none" xmlns="http://www.w3.org/2000/svg">
<path d="M69.8451 149.529C69.8451 150.28 70.0328 150.655 70.4082 151.031C70.5959 151.218 70.7836 151.406 70.9713 151.406C71.1589 151.406 71.5343 151.594 71.9097 151.594C72.2851 151.594 72.4728 151.594 72.6605 151.594C73.5989 151.406 74.5374 150.655 75.6635 150.092C76.2266 149.717 76.9774 149.904 77.3527 150.28C77.5404 150.467 77.9158 150.843 78.6666 151.406C79.4173 151.781 80.3558 152.157 81.1066 152.157C81.2942 152.157 81.4819 152.157 81.6696 152.157C82.6081 151.969 83.3588 151.406 84.1096 150.655C84.8604 149.904 85.2357 149.154 85.4234 148.778C85.7988 148.403 85.7988 148.027 86.1742 147.464C86.3619 147.089 86.7373 146.526 87.3003 145.963C88.0511 145.024 88.9896 144.274 90.8665 143.335C92.9311 142.397 94.9957 141.646 97.0603 141.271C97.0603 141.271 97.0602 141.271 97.2479 141.271C96.8726 141.083 96.4972 140.895 95.9341 140.708C91.9926 139.206 88.6142 138.08 85.9865 137.704C85.2357 137.517 84.2973 137.517 83.3588 137.517C80.5435 137.517 77.3527 138.268 74.9128 139.394C72.2851 140.52 70.2205 142.209 68.9067 144.274C68.9067 144.274 68.1559 145.4 67.7805 146.338C67.9682 146.151 68.3436 146.151 68.5313 145.963C69.0944 145.775 69.8451 145.775 70.2205 146.338C70.5959 146.714 70.7836 147.464 70.4082 148.027C70.0328 148.215 69.8451 148.966 69.8451 149.529Z" fill="#C33409"/>
<path d="M89.7434 171.302C92.7465 171.865 96.5003 172.428 100.817 172.428C105.134 172.428 108.888 171.865 111.891 171.114C108.137 169.237 104.571 167.173 100.817 165.296C97.0633 167.548 93.3095 169.613 89.7434 171.302Z" fill="#C33409"/>
<path d="M182.273 97.1635C181.522 91.5328 173.076 94.1604 175.141 99.0404C173.076 98.665 171.762 99.7912 171.199 101.293C170.636 102.982 171.387 104.671 173.076 105.422C168.759 105.61 161.815 105.422 154.87 101.668C141.919 94.9112 136.852 80.459 135.163 74.8283C137.79 74.4529 140.606 74.2652 143.233 73.8899C143.984 73.8899 144.547 73.1391 144.547 72.3883C144.547 71.6376 143.796 71.0745 143.046 71.0745C140.23 71.4499 137.415 71.8253 134.6 72.0129C134.412 71.0745 134.224 70.3237 134.036 69.3853C136.476 68.8222 138.916 68.4468 141.356 68.0714C142.107 68.0714 142.67 67.3207 142.67 66.5699C142.67 65.8192 141.919 65.2561 141.169 65.2561C138.541 65.6315 136.101 66.0068 133.661 66.5699C131.972 57.5608 131.409 48.7393 126.341 38.9794C121.837 29.9702 117.52 33.161 113.39 41.2317C102.88 38.7917 91.0553 36.164 80.92 41.4194C76.6031 32.7856 72.0985 28.4687 67.7817 38.604C63.0894 49.8655 62.714 58.6869 61.0248 67.6961C58.2094 66.9453 55.2064 66.1945 52.391 65.4438C51.6403 65.2561 50.8895 65.6315 50.7018 66.3822C50.5141 67.133 50.8895 67.8838 51.6403 68.0714C54.6433 68.8222 57.4587 69.573 60.4617 70.3237C60.4617 70.5114 60.274 70.8868 60.274 71.0745C60.0863 71.4499 60.0863 72.0129 59.8987 72.576C57.0833 72.2006 54.2679 71.8253 51.4526 71.4499C50.7018 71.2622 49.951 71.8253 49.7634 72.576C49.5757 73.3268 50.1387 74.0775 50.8895 74.2652C53.7049 74.6406 56.3325 75.016 59.1479 75.3914C57.271 82.899 53.7049 93.0343 45.0711 99.0404C38.8773 103.357 32.1204 104.296 27.8036 104.483C30.9943 102.043 27.6159 97.3512 24.2374 99.7912C26.1143 94.7235 18.7944 91.7205 16.3544 96.4127C15.979 96.0373 15.0406 95.0989 14.1021 95.0989C12.2252 95.2866 11.2868 97.9142 11.0991 98.665V98.8527C10.1606 101.856 12.976 105.985 13.5391 106.923C14.2898 107.862 15.416 109.363 17.2929 110.865C21.7975 114.431 27.0528 114.619 32.1204 114.994C36.0619 115.182 41.6927 114.994 48.4495 113.117C35.3112 126.631 32.6835 145.775 40.9419 158.914C46.0095 166.984 55.3941 173.178 65.9047 174.304C68.7201 174.68 71.1601 174.492 73.4124 174.304C73.6001 174.117 73.6001 174.117 73.7878 174.117C76.2277 173.366 90.1168 168.486 100.44 161.166C103.631 158.914 106.446 156.849 109.824 153.471C110.95 152.345 111.514 151.594 112.452 150.655C113.203 149.717 114.141 148.778 115.643 147.465C117.895 145.4 119.584 144.086 120.898 143.148C122.212 142.209 123.338 141.646 123.901 141.458C126.153 140.332 128.218 139.957 129.532 139.582C129.532 139.582 129.72 139.582 129.72 139.394C129.907 139.394 129.907 139.206 130.095 139.206L129.907 139.018C129.532 138.831 128.969 138.643 128.781 138.455C128.218 138.268 127.655 138.08 127.28 138.08C126.529 138.08 125.59 138.268 125.215 138.455C124.84 138.643 124.277 138.455 123.901 138.268C123.338 137.892 122.775 137.329 121.837 136.954C121.837 136.954 121.649 136.954 121.461 136.766C121.086 136.579 120.71 136.579 120.147 136.391C119.021 136.015 117.52 135.828 115.83 135.828C114.141 135.828 111.889 136.203 109.449 137.329C107.009 138.268 104.569 139.769 101.941 142.022C101.754 142.022 101.754 142.209 101.566 142.209C101.566 142.209 101.566 142.209 101.378 142.209C101.378 142.209 101.378 142.209 101.191 142.209C100.628 142.397 99.126 142.585 97.2491 142.96C95.3722 143.335 93.4953 144.086 91.806 144.837C90.3045 145.588 89.7415 146.151 89.1784 146.714C88.803 147.089 88.6153 147.465 88.4276 147.652C88.2399 148.028 88.0522 148.403 87.6769 149.154C87.4892 149.529 86.9261 150.468 85.9876 151.406C85.0492 152.345 83.7354 153.283 82.0461 153.658C81.6708 153.658 81.2954 153.846 80.92 153.846C79.2308 153.846 77.9169 153.283 76.9785 152.532C76.6031 152.345 76.2277 151.969 76.04 151.781C75.2893 152.345 74.3508 152.72 73.2247 153.095C72.8493 153.283 72.4739 153.283 71.7232 153.283C71.1601 153.283 70.597 153.283 70.0339 153.095C69.4709 152.908 68.7201 152.532 68.157 151.969C67.2186 151.031 66.8432 149.717 66.8432 148.591C66.8432 148.403 66.8432 148.215 66.8432 148.028C66.8432 148.028 66.8432 148.028 66.6555 148.028C66.4678 148.028 66.0924 148.028 65.9047 147.84C65.7171 147.84 65.3417 147.652 65.154 147.277C64.9663 147.089 64.7786 146.714 64.5909 146.526C64.5909 146.151 64.4032 145.963 64.4032 145.775C64.4032 145.212 64.5909 144.649 64.7786 144.274C64.9663 143.711 65.154 143.335 65.3417 142.96C65.7171 142.209 66.0924 141.458 66.2801 141.458C67.7817 139.018 70.2216 137.142 73.037 135.64C72.2862 135.265 71.3478 134.889 70.4093 134.514C69.6586 134.326 69.2832 133.575 69.4709 132.825C69.6586 132.074 70.4093 131.699 71.1601 131.886C73.4124 132.637 75.1016 133.575 76.2277 134.326C78.48 133.763 80.7323 133.388 82.9846 133.388C83.923 133.388 85.0492 133.388 85.9876 133.575C89.1784 133.951 92.5568 135.265 96.4983 136.766C97.9998 137.329 99.126 137.892 99.5014 138.08C100.064 138.268 100.44 138.643 100.815 138.831C103.255 136.954 105.883 135.452 108.135 134.326C110.763 133.2 113.39 132.637 115.643 132.637C119.772 132.637 122.775 134.139 122.963 134.139C123.713 134.514 124.464 134.889 125.027 135.265C125.59 135.077 126.341 134.889 127.28 134.889C128.03 134.889 128.969 135.077 129.907 135.265C130.095 135.265 130.47 135.452 131.033 135.828C131.596 136.015 132.16 136.391 132.535 136.954C132.723 137.142 132.723 137.329 132.91 137.517C134.412 137.142 135.726 136.954 137.227 136.954C138.166 136.954 139.104 136.954 140.043 137.142C140.793 137.329 141.356 138.08 141.169 138.831C140.981 139.582 140.23 140.145 139.479 139.957C138.729 139.769 137.978 139.769 137.039 139.769C134.975 139.769 132.91 140.332 131.221 141.083C131.033 141.083 131.033 141.271 130.846 141.271C130.658 141.458 130.283 141.458 130.095 141.646C129.72 141.834 129.344 141.834 128.969 141.834C127.843 142.022 126.529 142.585 124.84 143.335C124.277 143.523 123.526 144.086 122.212 144.837C120.898 145.588 119.397 146.902 117.144 148.966C115.83 150.28 114.892 151.218 114.141 151.969C113.39 152.908 112.64 153.658 111.514 154.785C108.323 157.975 105.507 160.04 102.692 162.104C107.384 164.544 112.077 167.172 116.957 169.612C117.144 169.8 117.332 169.987 117.52 170.175C122.212 172.427 131.972 175.618 141.919 171.301C149.427 168.111 153.181 162.292 154.307 160.415C162.002 148.028 159.187 129.446 147.926 112.929C157.873 117.434 172.325 118.936 182.085 113.117C188.467 110.865 194.097 92.6589 182.273 97.1635ZM83.923 56.6223C82.0461 58.8746 79.2308 60.1884 76.2277 60.1884C75.1016 60.1884 73.7878 60.0007 72.6616 59.4377C71.9108 59.0623 71.5355 58.3115 71.9108 57.5608C72.2862 56.81 73.037 56.4346 73.7878 56.81C74.5385 57.1854 75.477 57.3731 76.2277 57.3731C78.2923 57.3731 80.3569 56.4346 81.6708 54.9331C82.2338 54.37 82.9846 54.1823 83.7354 54.7454C84.2984 55.1208 84.4861 55.8716 83.923 56.6223ZM106.634 72.3883C106.446 72.576 106.071 73.1391 105.132 73.8899C104.194 74.4529 102.88 75.2037 101.191 75.2037C101.003 75.2037 101.003 75.2037 100.815 75.2037C99.3137 75.2037 97.9998 74.4529 97.2491 73.8899C96.8737 73.7022 96.686 73.3268 96.4983 73.1391C96.1229 73.5145 95.5599 73.8899 94.8091 74.2652C94.246 74.6406 93.1199 75.2037 91.6184 75.2037C91.4307 75.2037 91.4307 75.2037 91.243 75.2037C89.3661 75.016 88.0522 74.0775 87.4892 73.5145C86.9261 72.9514 86.9261 72.0129 87.3015 71.4499C87.6769 70.8868 88.803 70.8868 89.3661 71.2622C89.5538 71.4499 90.3045 72.0129 91.4307 72.2006H91.6184C92.3691 72.2006 92.9322 72.0129 93.4953 71.6376C94.246 71.2622 94.8091 70.6991 95.1845 70.136C94.9968 66.5699 94.6214 63.1915 94.4337 59.6254C94.4337 59.6254 94.4337 59.6254 94.4337 59.4377C94.0583 59.4377 93.4953 59.4377 93.1199 59.25C92.3691 59.0623 91.8061 58.3115 91.9937 57.5608C92.1814 56.81 92.9322 56.2469 93.683 56.4346C94.0583 56.4346 94.4337 56.6223 94.8091 56.6223C95.5599 56.6223 96.3106 56.4346 97.0614 56.2469C97.8122 55.8716 98.5629 56.2469 98.9383 56.9977C99.3137 57.7485 98.9383 58.4992 98.1875 58.8746C97.8121 59.0623 97.4368 59.0623 97.0614 59.25V59.4377C97.2491 63.0038 97.6245 66.3822 97.8121 69.9483C97.8121 70.136 97.8121 70.3237 97.8121 70.5114C97.8121 70.5114 97.8121 70.5114 97.8121 70.6991C97.8121 70.8868 98.1875 71.0745 98.7506 71.4499C99.3137 71.8253 100.064 72.2006 100.815 72.2006H101.003C101.941 72.2006 102.692 71.8253 103.255 71.4499C103.818 71.0745 104.194 70.6991 104.194 70.5114C104.757 69.9483 105.507 69.7607 106.258 70.3237C107.009 70.8868 107.009 71.8253 106.634 72.3883ZM119.584 58.4992C118.27 59.6254 116.581 60.0007 115.08 60.0007C114.329 60.0007 113.578 60.0007 112.827 59.8131C110.575 59.4377 108.323 58.4992 106.446 56.9977C105.883 56.6223 105.695 55.6839 106.071 54.9331C106.446 54.37 107.384 54.1823 108.135 54.5577C109.637 55.6839 111.514 56.4346 113.39 56.81C113.954 56.9977 114.517 56.9977 115.08 56.9977C116.206 56.9977 117.144 56.81 117.895 56.2469C118.458 55.6839 119.397 55.8716 119.96 56.4346C120.147 56.9977 120.147 57.9362 119.584 58.4992Z" fill="#C33409"/>
</svg>
