<svg width="200" height="200" viewBox="0 0 200 200" fill="none" xmlns="http://www.w3.org/2000/svg">
<path d="M3.21144 76.8606C7.3342 84.1015 13.9059 87.0075 16.666 88.2287C25.204 92.0049 33.5096 91.1284 37.3598 90.7224C40.1137 90.4315 41.3338 90.0417 47.2367 89.3166C44.694 94.4792 43.4914 100.323 43.8077 105.777C44.299 114.231 48.343 120.566 51.8082 124.699C52.7645 136.546 55.0822 148.281 58.7111 159.599C60.0125 163.66 61.5288 167.752 64.2177 171.06C67.9155 175.608 73.7733 178.313 79.6299 178.177C82.3614 178.113 85.2741 177.342 86.9991 175.223C88.7242 173.102 88.5892 169.406 86.2078 168.066C83.8814 166.757 82.1076 167.149 80.0462 165.925C75.8597 163.442 76.9173 154.366 77.3536 150.915C77.6598 148.493 78.2349 145.287 79.3637 141.488C87.8555 143.501 95.6172 143.479 100.171 143.463C101.954 143.456 128.477 143.028 146.194 128.968C155.765 126.939 165.139 123.98 174.12 120.095C176.529 119.052 178.923 117.941 181.458 117.262C182.515 116.978 183.645 116.773 184.692 117.09C185.313 117.278 185.87 117.641 186.487 117.84C187.524 118.174 188.647 118.026 189.724 117.871C192.231 117.509 194.823 117.09 196.935 115.693C199.049 114.295 200.547 111.636 199.809 109.211C199.325 107.621 198.016 106.444 196.764 105.351C196.016 104.699 195.247 104.034 194.321 103.678C192.237 102.876 189.931 103.8 187.866 104.648C178.759 108.393 169.141 110.883 159.367 112.065C161.688 107.302 163.051 103.074 163.695 101.071C164.797 97.6461 165.06 95.5184 164.728 93.0366C164.71 92.8996 164.675 92.7697 164.652 92.6347C164.835 92.5863 165.011 92.5081 165.163 92.376C167.154 90.649 169.663 89.4995 172.27 89.1206C172.97 89.0186 173.454 88.3683 173.352 87.668C173.251 86.9678 172.601 86.4828 171.901 86.5848C168.978 87.012 166.199 88.2443 163.905 90.1023C163.806 89.8697 163.708 89.6373 163.594 89.4118C163.864 89.3212 164.111 89.1582 164.274 88.8991C165.574 86.8372 167.394 85.0925 169.509 83.8823C170.123 83.531 170.336 82.7482 169.985 82.134C169.634 81.5197 168.852 81.3067 168.238 81.658C165.835 83.0347 163.786 84.9896 162.271 87.3074C159.631 83.8421 155.33 81.3441 151.187 79.6115C149.441 78.8814 147.651 78.217 145.831 77.6833C144.648 73.5273 142.796 69.5615 140.346 66.0024C139.924 65.3893 139.344 64.7199 138.604 64.7925C138.08 64.8444 137.676 65.2592 137.335 65.6589C136.227 66.9544 135.281 68.3541 134.438 69.8159C134.376 69.592 134.314 69.3706 134.254 69.128C134.14 68.6644 133.746 67.5208 132.772 66.6017C132.056 65.9267 130.921 65.5914 130.069 66.0818C129.227 66.5667 128.907 67.5946 128.782 68.1064C126.256 78.3932 124.718 84.6884 125.467 87.8695C124.664 88.3962 123.778 88.84 122.845 89.2078C109.811 75.3422 104.981 68.3941 103.588 64.7818C103.491 64.5316 102.209 61.5899 99.6537 58.3774C98.0923 56.4142 96.0485 54.7306 93.6195 54.1113C91.2306 53.5025 88.2717 54.2495 87.2317 56.4861C86.5716 57.905 86.8341 59.6399 87.6579 60.9705C88.4805 62.3012 89.7968 63.2653 91.2069 63.9403C92.177 64.4045 93.2208 64.758 94.0521 65.4406C94.0521 65.4406 94.9121 66.1694 95.5684 67.3049C96.4072 68.7563 98.2573 75.7414 100.484 85.8995C97.8836 83.9851 94.9109 81.7592 90.4031 79.659C89.353 79.1691 87.9192 78.5047 86.2241 77.8097C82.7163 67.3024 80.5087 56.3604 79.6849 45.3126C79.4987 42.8264 79.3987 40.2369 80.3562 37.9347C81.2913 35.6837 83.1326 33.9589 84.584 32.0013C86.0366 30.0431 87.1417 27.4906 86.2978 25.2034C85.414 22.8116 82.5764 21.5704 80.045 21.8594C77.5135 22.1485 75.2797 23.65 73.3921 25.3617C67.9292 30.3141 64.6027 37.1689 61.8913 44.0282C57.4411 55.2837 54.3034 67.0553 52.5307 79.029C48.358 80.3478 43.2177 81.5327 37.4598 81.7573C30.7931 82.0176 23.6777 82.2947 17.5398 77.7352C16.2135 76.7505 12.547 74.026 10.8994 69.1649C10.5044 67.9988 9.54182 65.1553 10.0256 61.6443C10.3881 59.0243 11.3057 57.845 11.1369 54.8677C11.0482 53.298 10.9256 51.5575 9.67683 50.626C8.31049 49.6075 6.22535 50.0235 5.00278 50.5953C0.67251 52.6217 0.229984 59.8544 0.0662366 62.5189C-0.0650055 64.666 -0.348774 70.6075 3.21144 76.8606ZM152.877 92.2759C151.68 92.9956 150.296 93.3984 148.885 93.3998C148.119 93.3999 147.345 93.2791 146.598 93.0179C145.931 92.7844 145.579 92.0535 145.813 91.3856C146.046 90.7176 146.776 90.3654 147.444 90.599C147.901 90.759 148.387 90.8373 148.885 90.8373C149.8 90.8387 150.752 90.5666 151.558 90.08C152.366 89.5939 153.019 88.904 153.396 88.0978C153.697 87.4574 154.459 87.1823 155.099 87.4833C155.739 87.7843 156.014 88.5474 155.713 89.1879C155.092 90.5076 154.073 91.5556 152.877 92.2759ZM143.653 107.671C145.466 105.995 147.593 104.667 149.893 103.772C150.388 103.58 150.944 103.825 151.136 104.32C151.328 104.815 151.083 105.372 150.589 105.564C148.514 106.371 146.59 107.572 144.955 109.083C144.566 109.443 143.958 109.418 143.598 109.029C143.239 108.639 143.263 108.031 143.653 107.671ZM142.159 102.896V102.896C144.111 101.614 146.316 100.729 148.613 100.306C149.135 100.21 149.635 100.555 149.731 101.077C149.827 101.599 149.482 102.1 148.96 102.196C146.918 102.572 144.948 103.363 143.213 104.503C142.769 104.794 142.174 104.671 141.883 104.227C141.592 103.783 141.716 103.187 142.159 102.896Z" fill="#79A0CC"/>
</svg>
