<svg width="200" height="200" viewBox="0 0 200 200" fill="none" xmlns="http://www.w3.org/2000/svg">
<path d="M184.581 40.3701C183.38 35.9494 181.092 32.4397 180.243 31.1575C178.841 29.0404 177.794 27.458 175.905 25.8933C175.249 25.3501 169.863 21.0305 162.557 21.9448C161.515 22.0756 154.483 22.9551 153.548 26.8799C153.087 28.8177 154.154 31.3164 155.883 32.1441C157.33 32.8365 158.379 31.949 160.556 31.8157C165.167 31.5326 168.801 35.01 169.231 35.4344C173.14 39.2823 172.663 45.1291 172.569 46.2925C171.551 58.7664 154.863 67.7137 144.485 70.9981C140.051 72.4018 135.959 73.0206 131.978 73.4088C121.529 66.0183 108.506 62.4942 97.1557 62.7432C78.661 63.1484 65.7537 73.5323 55.4451 81.8259C39.5426 94.6198 31.513 109.878 27.5459 117.418C24.4988 123.208 22.8413 127.849 21.433 131.79C19.8544 136.207 18.6849 139.512 18.0616 142.178C17.7322 142.836 14.0429 150.39 14.6032 157.798C14.6965 159.029 14.9483 160.693 16.1761 161.506C16.4559 161.692 17.5124 162.315 19.8314 161.681C21.1139 161.33 22.7635 160.593 24.5515 159.667C25.5092 158.333 26.1656 157.12 26.3056 156.851C30.9171 144.709 35.5279 132.566 40.1388 120.422C40.403 119.727 41.1892 119.374 41.8948 119.634C42.6006 119.895 42.9584 120.67 42.6943 121.366C38.0743 133.534 33.4543 145.7 28.8336 157.867L28.7762 157.997C28.7387 158.056 27.1637 161.208 24.7358 163.678C23.9197 164.501 23.0021 165.258 21.946 165.783L21.9459 165.783C20.4863 166.506 19.8199 166.783 19.7866 166.797L19.6128 166.855C18.8717 167.049 18.2185 167.169 17.6966 167.349C17.1701 167.531 16.791 167.736 16.4324 168.11L16.4313 168.111C16.1788 168.379 16.0214 168.611 15.872 168.907C15.7242 169.2 15.5902 169.567 15.4383 170.053L15.4379 170.054C15.294 170.507 15.0398 171.336 15.0393 172.337C15.0397 172.96 15.1376 173.634 15.4202 174.324C15.9945 175.722 17.0602 176.509 17.5534 176.853C18.9632 177.845 20.6233 178.181 22.2342 178.182C24.6268 178.185 26.7784 177.419 27.2715 177.236L27.272 177.236C29.2927 176.503 30.6408 175.48 31.1719 175.062V175.062C37.4286 170.164 40.9699 162.423 41.3357 161.551L41.3698 161.471L41.3697 161.471C43.8562 155.505 49.0753 146.708 61.112 134.113C61.6287 133.572 62.4922 133.547 63.0406 134.056C63.589 134.566 63.6147 135.417 63.0979 135.958C51.2212 148.387 46.2237 156.904 43.8936 162.494L43.8935 162.494C43.8731 162.542 42.9489 164.755 41.1211 167.683C39.2909 170.61 36.5629 174.26 32.8735 177.165C32.7549 177.258 32.5887 177.385 32.3989 177.524C32.8676 177.686 33.3844 177.772 33.9574 177.773C35.739 177.791 37.8744 176.943 38.9803 176.218L38.9816 176.217C39.4456 175.916 39.7469 175.707 40.3538 175.09C40.9531 174.475 41.8108 173.463 43.1646 171.716C44.736 169.69 46.0109 168.039 46.975 166.691C47.9396 165.345 48.5886 164.294 48.9137 163.537C48.9235 163.514 48.9246 163.501 48.9339 163.479C49.8116 163.246 50.7811 163.06 51.8667 162.945C52.2142 162.908 52.5633 162.873 52.9363 162.852C55.9696 162.687 57.5087 163.224 58.9717 163.344C59.6512 165.973 60.3306 168.601 61.0101 171.23C61.1961 171.95 61.9389 172.385 62.6692 172.201C63.3993 172.018 63.8403 171.285 63.6542 170.565C62.9958 168.019 62.3375 165.472 61.6791 162.925C61.7434 162.9 61.8037 162.88 61.8698 162.852C62.1351 162.74 62.3915 162.617 62.6392 162.484C64.1666 164.797 65.6935 167.109 67.2212 169.422C67.6324 170.045 68.4776 170.221 69.1091 169.815C69.7405 169.41 69.9189 168.576 69.5077 167.954C67.9503 165.596 66.3932 163.238 64.8358 160.88C67.059 158.79 68.1794 156.126 68.4524 155.434C70.3244 150.692 68.8381 146.993 71.9792 144.308C72.5361 143.832 73.0371 143.559 73.6466 143.255C74.2402 142.96 83.0725 138.615 89.6118 138.049C99.7238 137.173 102.542 145.491 113.357 147.553C114.766 147.821 116.186 147.953 117.604 147.976C120.739 148.601 122.122 147.033 131.441 147.278C138.297 147.458 142.418 147.61 147.128 149.924C147.128 149.924 154.035 153.922 157.336 160.94C157.87 162.077 158.294 163.572 157.396 164.458C156.435 165.405 154.772 164.413 153.605 165.253C151.928 166.461 152.053 171.072 154.402 173.465C157.334 176.451 163.183 175.428 166.63 173.097C170.345 170.588 171.371 166.494 171.997 163.838C173.592 157.061 171.779 151.256 171.076 149.094C168.01 139.642 160.796 121.919 150.179 99.472C149.608 97.2619 148.917 95.1874 148.15 93.3094C146.783 89.9587 145.029 86.8911 142.974 84.0974C151.14 82.7863 161.807 79.6997 171.567 72.2849C178.987 66.6476 181.567 61.7868 182.244 60.4402C183.074 58.7914 187.234 50.1352 184.581 40.3701Z" fill="#C33409"/>
</svg>
