<svg width="200" height="200" viewBox="0 0 200 200" fill="none" xmlns="http://www.w3.org/2000/svg">
<path d="M192.33 55.1687C192.194 53.915 191.924 52.4984 190.885 51.8467C189.505 50.9817 187.778 52.0115 186.482 53.0083C186.129 53.2798 185.776 53.5512 185.423 53.8226C184.869 52.859 184.115 51.7234 183.083 50.1725C182.079 48.6631 181.537 48.1055 180.814 47.9818C179.227 47.7107 178.115 49.5194 177.465 51.0489C175.973 54.559 174.538 57.497 173.511 59.8809C170.626 58.9459 167.789 58.5917 165.384 58.2978C163.885 58.1143 151.505 56.7577 143.631 62.5582C143.62 62.5446 143.617 62.5271 143.605 62.5138C141.968 60.6706 140.329 58.8271 138.692 56.9837C138.205 56.4349 137.382 56.4009 136.854 56.9079C136.327 57.4149 136.294 58.2707 136.782 58.8195C138.403 60.6449 140.025 62.4702 141.646 64.2945C141.403 64.5443 141.168 64.8042 140.94 65.0738C140.114 64.6831 139.272 64.2946 138.394 63.9127L138.394 63.9125C136.612 63.1374 134.887 62.4558 133.234 61.8554C132.556 61.6091 131.815 61.9812 131.578 62.6865C131.341 63.392 131.699 64.1634 132.377 64.4097C133.983 64.9931 135.659 65.6554 137.39 66.4085L137.39 66.4083C138.045 66.6935 138.683 66.9821 139.309 67.2723C138.486 68.5682 137.587 70.3655 137.17 72.6219C136.436 76.6045 138.01 77.6256 137.454 80.6181C137.341 81.2276 137.159 81.8037 136.918 82.3528C137.037 82.5752 137.117 82.8219 137.098 83.0948C137.046 83.8399 136.423 84.4 135.706 84.3457C135.7 84.3452 135.694 84.3447 135.687 84.3442C135.484 84.5985 135.268 84.848 135.037 85.092L135.32 84.3163C118.116 83.0119 105.284 82.0221 98.1601 81.1029C97.8354 81.0609 97.1824 81.0002 96.308 81.0004C94.6722 80.9998 92.2545 81.2118 89.6372 82.1123C88.3225 82.5636 87.055 83.2614 86.0174 84.1551C84.9775 85.05 84.1711 86.1297 83.7103 87.3646L83.7102 87.3647C83.4643 88.0221 83.3383 88.7538 83.3386 89.4891C83.3377 90.4439 83.552 91.3998 83.9478 92.1977C84.3448 92.9984 84.908 93.635 85.623 94.041C86.3571 94.4545 87.0959 94.6177 87.9331 94.6203C89.2345 94.6261 90.7587 94.1751 92.3902 93.5977C94.0244 93.0273 95.7578 92.3424 97.5872 92.0242C98.2573 91.9087 98.912 91.8535 99.5579 91.8536C101.261 91.8537 102.878 92.2347 104.642 92.8163C106.409 93.4 108.346 94.1883 110.769 95.0803C115.204 96.715 121.437 99.4906 128.352 104.293C128.949 104.707 129.11 105.547 128.712 106.169C128.313 106.79 127.505 106.958 126.908 106.543C120.207 101.89 114.184 99.2095 109.9 97.6305C107.437 96.7224 105.498 95.9363 103.856 95.3954C103.333 95.223 102.85 95.0856 102.381 94.9649C102.859 95.6497 103.324 96.4025 103.748 97.2479C105.326 100.394 105.795 103.563 105.795 106.227C105.794 109.127 105.243 111.453 104.933 112.596C104.738 113.315 104.019 113.734 103.328 113.53C102.637 113.327 102.235 112.58 102.43 111.861C102.705 110.849 103.194 108.772 103.194 106.227C103.193 103.887 102.783 101.174 101.442 98.4992C100.655 96.9293 99.7051 95.69 98.8096 94.7342C98.7805 94.7033 98.7703 94.6628 98.7447 94.6299C98.501 94.652 98.2651 94.65 98.012 94.6935C96.5319 94.9449 94.9063 95.5672 93.2218 96.1614C91.5345 96.7487 89.7802 97.3201 87.9331 97.3258C86.7542 97.3285 85.53 97.0724 84.3779 96.4164C83.1514 95.7211 82.2334 94.6485 81.6346 93.435C81.0345 92.2186 80.7385 90.8554 80.7375 89.4891C80.7378 88.4366 80.9146 87.3793 81.2857 86.385V86.385L81.2858 86.3848C81.2858 86.3849 81.2857 86.3849 81.2857 86.3849C81.9339 84.6494 83.0387 83.206 84.3599 82.07C84.4542 81.9889 84.5573 81.9207 84.6538 81.8427C78.8369 79.0813 72.7896 76.7334 67.1219 73.6476C65.9592 73.0147 63.5284 71.4219 60.6062 69.0644C56.4806 65.7363 54.4184 64.0715 52.9072 61.5129C51.5945 59.2892 50.7629 54.8122 49.1534 45.9484C48.7699 43.8343 48.5992 41.8037 47.1313 39.8127C46.7452 39.2894 44.3281 36.0131 40.9474 36.3944C38.0335 36.7227 36.3936 39.545 36.2662 39.773C34.5448 42.8395 36.4285 45.4136 36.9414 51.4592C37.6275 59.5522 35.9371 60.2551 37.1205 67.1999C37.6701 70.4278 38.3323 74.0949 40.809 77.8213C42.3008 80.0665 43.0496 80.542 44.9999 83.0818C46.9755 85.6546 48.1129 88.7998 49.1624 91.9066C51.5719 99.0398 53.6838 106.281 55.4893 113.605C56.3364 117.041 57.1279 120.517 58.3216 123.829C60.1743 137.261 69.2339 146.427 73.2386 150.116C60.9406 150.062 46.0643 149.394 36.8243 146.871C31.1377 145.32 27.7751 142.828 24.9356 140.255C21.5271 137.165 19.0013 132.754 18.9799 128.051C18.9741 126.773 19.1468 125.46 18.784 124.24C17.7474 120.748 12.6673 120.195 10.0658 122.652C7.46435 125.108 6.97161 129.2 7.41973 132.826C8.8882 144.692 18.5168 154.07 29.2539 158.363C39.9902 162.655 51.7826 162.81 63.2846 162.909C76.2571 163.021 89.2296 163.134 102.202 163.247C108.852 164.009 114.12 163.457 116.234 163.234C137.461 160.995 151.071 147.432 158.132 140.397C165.022 133.532 168.824 127.256 176.429 114.705C186.017 98.8791 187.977 91.0276 188.337 86.3993L188.437 86.5244C192.128 76.5999 193.477 65.7431 192.33 55.1687ZM159.245 93.7757C158.752 94.0257 158.158 93.8127 157.917 93.2998C156.579 90.4439 155.24 87.5878 153.901 84.7312C153.661 84.2182 153.866 83.5998 154.359 83.3498C154.852 83.0998 155.447 83.313 155.687 83.8258C157.026 86.6824 158.364 89.5383 159.703 92.3943C159.943 92.9072 159.738 93.5256 159.245 93.7757ZM164.039 88.5065C163.696 88.9511 163.07 89.0215 162.643 88.6639C160.322 86.7215 158.24 84.4727 156.461 81.9876C156.134 81.5298 156.225 80.8826 156.665 80.542C157.105 80.2013 157.727 80.2962 158.055 80.7539C159.732 83.0982 161.698 85.2216 163.888 87.0539C164.316 87.4115 164.383 88.0619 164.039 88.5065ZM165.006 75.1456C164.015 75.5773 162.955 75.7855 161.899 75.7857C160.413 75.7848 158.928 75.3749 157.639 74.5518L157.638 74.5516C155.441 73.1349 153.998 70.6615 153.806 67.9802C153.755 67.2349 154.295 66.5878 155.011 66.5347C155.727 66.4815 156.35 67.0426 156.401 67.7878C156.514 69.5604 157.542 71.3232 159.001 72.2472C159.85 72.7917 160.876 73.081 161.899 73.0801C162.625 73.0803 163.347 72.9355 164.001 72.6502C164.663 72.3615 165.425 72.686 165.703 73.3751C165.98 74.0642 165.668 74.8568 165.006 75.1456Z" fill="#79A0CC"/>
</svg>
